<?xml version="1.0" encoding="UTF-8" standalone="no"?>
<!-- Created with Inkscape (http://www.inkscape.org/) -->

<svg
   xmlns:dc="http://purl.org/dc/elements/1.1/"
   xmlns:cc="http://creativecommons.org/ns#"
   xmlns:rdf="http://www.w3.org/1999/02/22-rdf-syntax-ns#"
   xmlns:svg="http://www.w3.org/2000/svg"
   xmlns="http://www.w3.org/2000/svg"
   xmlns:xlink="http://www.w3.org/1999/xlink"
   xmlns:sodipodi="http://sodipodi.sourceforge.net/DTD/sodipodi-0.dtd"
   xmlns:inkscape="http://www.inkscape.org/namespaces/inkscape"
   width="305"
   height="305">
  <g
     inkscape:label="Layer 1"
     inkscape:groupmode="layer"
     id="layer1"
     transform="translate(-252.77826,-195.36339)">
    <path
       style="fill:none;stroke:none"
       d="m 501.20561,353.76596 c 0,54.50791 -39.39598,98.6953 -87.99339,98.6953 -48.59741,0 -87.99339,-44.18739 -87.99339,-98.6953 0,-54.50791 39.39598,-98.6953 87.99339,-98.6953 48.59741,0 87.99339,44.18739 87.99339,98.6953 z"
       transform="matrix(-1.2690917,0.3358145,-0.30176248,-1.1404043,1035.1265,614.86857)" />
    <path
       style="fill:#ffffff;stroke:#008000;stroke-width:5;stroke-linecap:square;stroke-linejoin:round;stroke-miterlimit:4;stroke-opacity:1;stroke-dasharray:none"
       d="m 447.10157,315.41748 c 0,52.70192 -48.8457,95.42527 -109.09992,95.42527 -60.25423,0 -109.09992,-42.72335 -109.09992,-95.42527 0,-52.70192 48.84569,-95.42527 109.09992,-95.42527 60.25422,0 109.09992,42.72335 109.09992,95.42527 z"
       transform="matrix(1.3643717,0,0,1.5598893,-55.881632,-144.15296)" />
    <g
       transform="matrix(0.99162061,0,0,1,4.5745179,0)"
       style="font-size:20px;font-style:normal;font-variant:normal;font-weight:bold;font-stretch:normal;line-height:0%;letter-spacing:0px;word-spacing:0px;fill:#000000;fill-opacity:1;stroke:none;font-family:Swis721 BdCnOul BT;-inkscape-font-specification:Sans Bold"
       id="text3770">
      <path
         d="m 268.60106,375.5526 c -0.52493,0.77896 -0.83736,1.4172 -0.93729,1.91472 -0.0999,0.49752 -0.0629,1.22285 0.11084,2.176 0.0693,0.53892 0.20222,1.26345 0.39879,2.1736 0.19662,0.91015 0.50931,1.71797 0.93807,2.42346 0.42881,0.70548 1.02612,1.02069 1.79193,0.94562 0.60239,-0.12222 0.95972,-0.39441 1.072,-0.81656 0.11232,-0.42215 0.29272,-0.88495 0.54122,-1.38839 0.24853,-0.50345 0.87829,-0.93822 1.88929,-1.30433 1.15219,-0.35992 2.31917,-0.65298 3.50096,-0.8792 1.18181,-0.22621 2.3631,-0.42928 3.54386,-0.6092 0.76198,-0.12316 1.59707,-0.23487 2.50527,-0.33513 0.90822,-0.10026 1.73605,-0.15209 2.48348,-0.15551 0.68682,0.0247 1.17843,0.19347 1.47483,0.50636 0.2964,0.31289 0.56991,0.61078 0.82053,0.89366 0.25062,0.28289 0.65067,0.39165 1.20015,0.3263 0.69327,-0.14328 1.16,-0.53517 1.4002,-1.17566 0.2402,-0.64048 0.34893,-1.34583 0.32619,-2.11604 -0.0228,-0.7702 -0.0819,-1.42153 -0.17748,-1.95399 -0.0755,-0.54662 -0.22312,-1.19177 -0.44297,-1.93543 -0.21985,-0.74364 -0.54795,-1.38249 -0.98429,-1.91653 -0.43634,-0.53401 -1.01697,-0.75991 -1.7419,-0.67767 -0.49911,0.0982 -0.80848,0.30721 -0.92811,0.62716 -0.11962,0.31997 -0.26219,0.67154 -0.4277,1.0547 -0.16551,0.38319 -0.56664,0.71867 -1.2034,1.00645 -0.42393,0.16523 -0.90216,0.30553 -1.43469,0.42088 -0.53251,0.11538 -1.0349,0.20918 -1.50717,0.28141 -0.41482,0.0862 -0.97742,0.12664 -1.6878,0.12136 -0.71036,-0.005 -1.14144,-0.24575 -1.29323,-0.72146 -0.0326,-0.35902 0.0587,-0.74401 0.27368,-1.15497 0.21504,-0.41095 0.42173,-0.75556 0.62007,-1.03385 l 7.45892,-11.5534 c 0.18135,-0.27975 0.32908,-0.57305 0.4432,-0.87992 0.11413,-0.30681 0.149,-0.62413 0.10461,-0.95194 -0.15986,-0.7076 -0.64455,-1.14053 -1.45408,-1.29881 -0.80953,-0.15822 -1.68152,-0.18165 -2.61598,-0.0703 -0.93445,0.11142 -1.66901,0.21777 -2.20367,0.31906 l -8.4766,1.34679 c -0.6545,0.1131 -1.40734,0.21454 -2.25851,0.30431 -0.85114,0.0898 -1.60451,0.0823 -2.26012,-0.0226 -0.7077,-0.23496 -1.1817,-0.62242 -1.422,-1.16238 -0.24026,-0.53991 -0.78216,-0.77398 -1.62571,-0.70219 -0.73118,0.15224 -1.19494,0.56022 -1.39129,1.22395 -0.1963,0.66378 -0.25445,1.3876 -0.17446,2.17147 0.08,0.78392 0.16895,1.43218 0.26674,1.94479 0.0639,0.49318 0.17832,1.10135 0.34332,1.82449 0.16505,0.72318 0.4343,1.35149 0.80777,1.88493 0.37351,0.53346 0.90489,0.76221 1.59412,0.68624 0.78781,-0.18946 1.22976,-0.57565 1.32587,-1.15857 0.0962,-0.58289 0.42173,-1.06802 0.97672,-1.45542 0.38215,-0.19072 0.85735,-0.3501 1.42558,-0.47816 0.56828,-0.12801 1.07024,-0.22454 1.50588,-0.28959 0.32004,-0.0669 0.71224,-0.0887 1.17661,-0.0653 0.46441,0.0234 0.75002,0.22828 0.85683,0.61464 0.0178,0.32295 -0.0964,0.71299 -0.34257,1.17011 -0.24612,0.45716 -0.44993,0.8111 -0.61144,1.06184 z"
         style="font-size:33.13913345px;line-height:0%;font-family:Cooper Std Black;-inkscape-font-specification:Cooper Std Black"
         id="path4299"
         inkscape:connector-curvature="0" />
      <path
         d="m 264.95596,347.3786 c -0.10915,0.76128 -0.14011,1.62144 -0.0929,2.58048 0.0473,0.95904 0.54412,1.51553 1.49049,1.66946 0.70651,0.0196 1.10917,-0.17339 1.20799,-0.57886 0.0989,-0.40547 0.34918,-0.81329 0.75098,-1.22347 0.40185,-0.41016 1.4105,-0.6125 3.02595,-0.60703 1.9208,0.0233 3.35207,0.053 4.29382,0.0892 0.94178,0.0362 1.88256,0.11291 2.82235,0.23016 0.9398,0.11726 2.36715,0.30913 4.28203,0.57562 1.11003,0.18143 1.8114,0.48013 2.10411,0.89611 0.29271,0.41598 0.49265,0.81257 0.59982,1.18976 0.10717,0.3772 0.43747,0.59833 0.99088,0.6634 0.24418,0.0613 0.54154,-0.0148 0.8921,-0.22842 0.35056,-0.21361 0.57855,-0.84271 0.68397,-1.8873 l 0.94808,-13.58697 c 0.042,-0.56178 0.097,-1.07284 0.16512,-1.53317 0.0681,-0.4603 0.13275,-0.87103 0.19394,-1.23219 0.0761,-0.34625 0.14247,-0.64335 0.19923,-0.89133 0.0567,-0.24793 0.0903,-0.43106 0.10062,-0.5494 -0.004,-0.45714 -0.34808,-0.94784 -1.03166,-1.47212 -0.68357,-0.52423 -1.49717,-0.98373 -2.44077,-1.37851 -0.94361,-0.39473 -1.80754,-0.62644 -2.59182,-0.69514 -0.49311,-0.0344 -0.97066,0.0652 -1.43266,0.29866 -0.46198,0.23355 -0.72658,0.61371 -0.79379,1.14051 2.4e-4,0.82539 0.36441,1.40733 1.09252,1.74581 0.72813,0.33852 1.44049,0.90293 2.13708,1.69321 0.69659,0.79031 0.99772,2.27584 0.90337,4.45659 -0.0469,1.14199 -0.14527,1.98201 -0.29519,2.52006 -0.14992,0.53808 -0.55452,0.8646 -1.2138,0.97955 -0.65928,0.11498 -1.77641,0.1088 -3.3514,-0.0185 -0.56134,-0.009 -1.0756,-0.0972 -1.54278,-0.26545 -0.46716,-0.16823 -0.69274,-0.58537 -0.67672,-1.25142 0.11644,-1.05139 0.46047,-1.66183 1.03209,-1.83132 0.57164,-0.16947 1.13827,-0.26731 1.6999,-0.29355 0.56164,-0.0262 0.88568,-0.35014 0.97212,-0.97181 0.005,-0.6546 -0.32083,-1.16495 -0.9771,-1.53106 -0.65626,-0.36607 -1.39552,-0.62723 -2.21778,-0.78346 -0.82224,-0.15619 -1.47989,-0.24679 -1.97296,-0.27178 -0.46719,-0.0428 -1.09489,-0.0514 -1.8831,-0.0256 -0.78818,0.0258 -1.51218,0.16313 -2.17201,0.41194 -0.65979,0.24885 -1.03071,0.6864 -1.11277,1.31264 -0.006,0.7323 0.28233,1.17316 0.86368,1.3226 0.58138,0.14947 1.16211,0.3081 1.74218,0.47591 0.5801,0.16783 0.86543,0.64543 0.856,1.43279 -0.0305,0.97301 -0.16362,1.57136 -0.39932,1.79504 -0.23567,0.22372 -0.81294,0.28448 -1.73181,0.18229 -1.85558,-0.0374 -3.06816,-0.21478 -3.63776,-0.53205 -0.56956,-0.31726 -0.76771,-1.34565 -0.59444,-3.0852 0.17964,-2.00993 0.5462,-3.31353 1.09968,-3.91081 0.55352,-0.59724 1.09279,-0.99064 1.61783,-1.1802 0.52506,-0.18952 0.83472,-0.67769 0.92898,-1.4645 0.0134,-0.63782 -0.21572,-1.10365 -0.68729,-1.39749 -0.47154,-0.29379 -0.99586,-0.45633 -1.57296,-0.48763 -0.83152,-0.0642 -1.81042,0.0792 -2.93672,0.4304 -1.12626,0.35121 -1.77439,0.99113 -1.94441,1.91977 0.0145,0.18927 0.0937,0.64049 0.23774,1.35366 0.14403,0.71321 0.15523,2.13965 0.0336,4.27933 z"
         style="font-size:33.13913345px;line-height:0%;font-family:Cooper Std Black;-inkscape-font-specification:Cooper Std Black"
         id="path4301"
         inkscape:connector-curvature="0" />
      <path
         d="m 294.1343,307.52332 c 0.75475,-0.0314 1.38709,-0.16578 1.89703,-0.40326 0.50992,-0.23743 0.89853,-0.73511 1.16585,-1.49303 0.26513,-0.88408 0.151,-1.66998 -0.34239,-2.3577 -0.4934,-0.68767 -1.12724,-1.33574 -1.90151,-1.94421 l -12.27339,-10.20943 c -0.84583,-0.80279 -1.3231,-1.48644 -1.4318,-2.05096 -0.10869,-0.56443 -0.49352,-0.98021 -1.15449,-1.24731 -0.87242,-0.21808 -1.56286,0.0439 -2.07132,0.78585 -0.50843,0.74206 -0.86945,1.47528 -1.08304,2.19968 -0.16995,0.45581 -0.35168,1.03919 -0.54519,1.75015 -0.19348,0.71104 -0.25631,1.38686 -0.18849,2.02746 0.0678,0.64067 0.40875,1.08334 1.02273,1.328 0.79871,0.17767 1.35894,-0.0105 1.6807,-0.56459 0.32178,-0.554 0.78792,-0.7743 1.39843,-0.66089 0.20606,0.0816 0.72558,0.40361 1.55857,0.96613 0.83301,0.5626 1.62141,1.17607 2.36519,1.84044 0.7438,0.66443 1.0849,1.19016 1.02332,1.57718 -0.20186,0.36082 -0.66411,0.58682 -1.38676,0.678 -0.72264,0.0912 -1.26487,0.14115 -1.62671,0.14972 -0.46042,0.0603 -1.11289,0.13828 -1.9574,0.23385 -0.84449,0.0956 -1.50941,0.0818 -1.99477,-0.0415 -0.34584,-0.1836 -0.58446,-0.52761 -0.71585,-1.03202 -0.13138,-0.50435 -0.43273,-0.86976 -0.90404,-1.09623 -0.17851,-0.10453 -0.44748,-0.12453 -0.8069,-0.06 -0.3594,0.0646 -0.80451,0.47729 -1.33533,1.2381 -0.53079,0.76087 -1.14255,2.13342 -1.83527,4.11765 -0.70766,2.14669 -1.05432,3.70262 -1.03995,4.66779 0.0144,0.96522 0.16347,1.56981 0.44721,1.81379 0.28378,0.24401 0.47589,0.35753 0.57632,0.34055 0.39061,0.12306 0.74479,0.1155 1.06254,-0.0227 0.31777,-0.13814 0.60783,-0.34264 0.87018,-0.61351 0.49381,-0.36548 1.11625,-0.58206 1.86731,-0.64973 0.75109,-0.0676 1.23056,-0.0704 1.43839,-0.008 0.13148,0.0573 0.32009,0.18435 0.56585,0.38123 0.24577,0.19693 0.41852,0.34486 0.51825,0.44378 0.29032,0.19462 0.73926,0.55932 1.34681,1.0941 0.60757,0.53481 0.88272,1.02404 0.82546,1.4677 -0.20763,0.34351 -0.70769,0.54348 -1.50018,0.59991 -0.79247,0.0565 -1.36984,0.0725 -1.7321,0.0481 -0.2911,0.013 -0.88813,0.0311 -1.79108,0.0542 -0.90293,0.0232 -1.62256,-0.0356 -2.15888,-0.17627 -0.44124,-0.18407 -0.74392,-0.42155 -0.90804,-0.71244 -0.16409,-0.29085 -0.45893,-0.52565 -0.88452,-0.70441 -0.62481,-0.28316 -1.22977,-0.13065 -1.81488,0.45754 -0.58507,0.58823 -1.25909,1.9952 -2.02205,4.2209 -0.19142,0.52 -0.39956,1.2353 -0.62443,2.14589 -0.22482,0.91061 -0.30209,1.78208 -0.23181,2.6144 0.0703,0.83234 0.45247,1.39109 1.14643,1.67625 0.60111,0.19382 1.01817,0.20296 1.25116,0.0274 0.23303,-0.17554 0.50185,-0.39334 0.80647,-0.65339 0.30465,-0.26004 0.86494,-0.4199 1.68088,-0.47959 l 16.88797,-0.75133 c 0.82354,-0.002 1.53518,-0.11236 2.13492,-0.33085 0.59975,-0.21848 1.05235,-0.74977 1.35782,-1.59386 0.31865,-0.9811 0.28732,-1.74458 -0.094,-2.29046 -0.3813,-0.54586 -0.93805,-1.10344 -1.67025,-1.67274 l -4.08326,-3.52885 c -0.86361,-0.72717 -1.48289,-1.27252 -1.85783,-1.63606 -0.37493,-0.36351 -0.51111,-0.68278 -0.40853,-0.95783 0.11781,-0.23625 0.36066,-0.37078 0.72854,-0.40359 0.3679,-0.0328 0.66757,-0.0516 0.89903,-0.0566 z"
         style="font-size:33.13913345px;line-height:0%;font-family:Cooper Std Black;-inkscape-font-specification:Cooper Std Black"
         id="path4303"
         inkscape:connector-curvature="0" />
      <path
         d="m 291.29323,267.95716 c -0.52406,0.56286 -1.04033,1.25155 -1.54881,2.06607 -0.50845,0.81455 -0.41801,1.55505 0.2713,2.2215 0.56901,0.41924 1.00979,0.49057 1.32232,0.21398 0.31256,-0.27656 0.75085,-0.4686 1.31487,-0.57614 0.56406,-0.10751 1.50782,0.30191 2.83129,1.22826 1.56405,1.11525 2.72243,1.95643 3.47514,2.52355 0.75272,0.56715 1.48151,1.16701 2.18634,1.79958 0.70485,0.6326 1.76748,1.60468 3.1879,2.91625 0.80802,0.78242 1.21352,1.42795 1.21651,1.93658 0.003,0.50864 -0.0591,0.94841 -0.18637,1.31931 -0.12724,0.37092 0.0178,0.74099 0.43514,1.11023 0.16552,0.18971 0.45316,0.29687 0.86293,0.3215 0.40978,0.0246 0.95599,-0.36187 1.63866,-1.15952 l 8.53198,-10.6165 c 0.35504,-0.43738 0.69188,-0.82565 1.0105,-1.16481 0.3186,-0.33913 0.60607,-0.63952 0.86241,-0.90119 0.26005,-0.24092 0.48413,-0.44701 0.67224,-0.61826 0.18808,-0.17122 0.32013,-0.30246 0.39615,-0.39374 0.25742,-0.37779 0.25505,-0.977 -0.007,-1.79761 -0.2622,-0.82058 -0.6681,-1.6622 -1.2177,-2.52486 -0.54963,-0.86262 -1.12686,-1.5459 -1.7317,-2.04986 -0.38532,-0.30963 -0.83429,-0.5004 -1.34692,-0.57229 -0.51265,-0.0718 -0.94688,0.0893 -1.30269,0.48359 -0.47082,0.67795 -0.50384,1.36364 -0.0991,2.0571 0.40475,0.6935 0.66765,1.56349 0.78871,2.60997 0.12105,1.04652 -0.47939,2.43826 -1.80131,4.17523 -0.69017,0.91105 -1.25033,1.54472 -1.68049,1.90101 -0.43016,0.35632 -0.94874,0.39356 -1.55574,0.11174 -0.60701,-0.2818 -1.52086,-0.92437 -2.74156,-1.92771 -0.456,-0.32748 -0.82782,-0.6936 -1.11545,-1.09837 -0.28762,-0.40474 -0.23482,-0.87601 0.15841,-1.41383 0.6956,-0.79695 1.32646,-1.10192 1.89259,-0.9149 0.56613,0.18704 1.08728,0.43004 1.56346,0.72899 0.47617,0.29898 0.92713,0.21788 1.35286,-0.2433 0.37755,-0.53477 0.40132,-1.13973 0.0713,-1.81488 -0.33001,-0.67512 -0.78806,-1.31143 -1.37414,-1.90895 -0.58608,-0.59747 -1.07444,-1.04716 -1.46509,-1.34905 -0.35921,-0.30179 -0.8698,-0.66699 -1.53178,-1.09561 -0.66198,-0.42858 -1.33488,-0.72897 -2.01871,-0.90118 -0.68382,-0.17216 -1.23811,-0.0245 -1.66286,0.44292 -0.42245,0.59819 -0.43762,1.12451 -0.0455,1.57898 0.39213,0.4545 0.77849,0.91617 1.15908,1.38498 0.3806,0.46886 0.34237,1.02388 -0.11468,1.66508 -0.5803,0.78161 -1.03106,1.19702 -1.35226,1.24621 -0.3212,0.0492 -0.82992,-0.2303 -1.52617,-0.83858 -1.50243,-1.08962 -2.39699,-1.92722 -2.68369,-2.5128 -0.28668,-0.58555 0.13746,-1.54314 1.27242,-2.87276 1.29449,-1.54803 2.33941,-2.40936 3.13476,-2.58399 0.79536,-0.17459 1.4627,-0.18991 2.00203,-0.046 0.53933,0.144 1.07219,-0.0802 1.59859,-0.6725 0.37496,-0.51614 0.45265,-1.02941 0.23308,-1.53982 -0.21958,-0.51034 -0.55739,-0.94302 -1.01343,-1.29804 -0.64619,-0.52725 -1.53193,-0.96805 -2.65723,-1.32241 -1.12529,-0.35429 -2.0227,-0.19865 -2.69225,0.46692 -0.0961,0.16371 -0.28851,0.57947 -0.57724,1.24729 -0.28871,0.66787 -1.09352,1.84564 -2.41442,3.53331 z"
         style="font-size:33.13913345px;line-height:0%;font-family:Cooper Std Black;-inkscape-font-specification:Cooper Std Black"
         id="path4305"
         inkscape:connector-curvature="0" />
      <path
         d="m 318.78522,246.30009 c -0.32235,-0.41313 -0.53711,-0.78747 -0.64427,-1.12302 -0.10715,-0.33551 0.0649,-0.68931 0.51615,-1.06138 0.75574,-0.55594 1.46038,-0.677 2.11393,-0.36317 0.65355,0.31388 1.23476,0.80963 1.74362,1.48725 0.6561,0.79962 0.99179,1.55234 1.00707,2.25816 0.0153,0.70586 -0.39021,1.3917 -1.21646,2.05752 -0.41355,0.31299 -0.7374,0.3694 -0.97154,0.16922 -0.23413,-0.20014 -0.46509,-0.4928 -0.69286,-0.87798 z m 0.80873,13.58268 c 0.83741,1.10241 1.24731,1.963 1.2297,2.58175 -0.0176,0.61877 -0.12458,1.12513 -0.32094,1.5191 -0.19636,0.39397 -0.14396,0.80496 0.15719,1.23298 0.53037,0.58942 1.21721,0.76824 2.06053,0.53645 0.84332,-0.23178 1.67215,-0.62375 2.48652,-1.17592 0.81435,-0.55217 1.44328,-1.01412 1.88679,-1.38586 2.0327,-1.63224 3.24259,-2.84834 3.62966,-3.64832 0.38705,-0.79996 0.36083,-1.41419 -0.0787,-1.84268 -0.49339,-0.51619 -1.00266,-0.68632 -1.52783,-0.5104 -0.52519,0.17593 -1.07603,0.06 -1.65252,-0.34775 -0.36295,-0.32441 -0.74028,-0.70354 -1.13201,-1.1374 -0.39173,-0.43383 -0.7418,-0.84523 -1.0502,-1.23419 -0.62845,-0.78366 -0.95939,-1.31964 -0.99283,-1.60796 -0.0334,-0.28829 0.10313,-0.52919 0.4097,-0.7227 0.7149,-0.52965 1.41059,-0.68416 2.08706,-0.46352 0.67646,0.22067 1.32402,0.59133 1.94268,1.11197 1.70404,1.48521 3.30826,2.48879 4.81267,3.01075 1.50439,0.52199 3.26448,0.004 5.28027,-1.55258 1.43608,-1.17899 2.31965,-2.23087 2.65071,-3.15567 0.33102,-0.92476 0.2859,-1.64039 -0.13535,-2.1469 -0.40443,-0.46977 -0.77295,-0.62625 -1.10558,-0.46943 -0.33267,0.15686 -0.71928,0.28133 -1.15982,0.37343 -0.44059,0.0921 -1.02495,-0.19379 -1.75309,-0.85777 -1.26541,-1.24301 -2.41115,-2.03607 -3.43723,-2.37918 -1.02611,-0.34307 -2.11216,-0.31565 -3.25817,0.0823 -0.20961,0.0714 -0.41331,0.11698 -0.6111,0.13664 -0.19781,0.0197 -0.37526,-0.0615 -0.53235,-0.24352 -0.11633,-0.15181 -0.16314,-0.29276 -0.14043,-0.42286 0.0227,-0.13005 0.0703,-0.27202 0.14293,-0.4259 0.43643,-0.94417 0.57209,-1.90058 0.40696,-2.86922 -0.16514,-0.96858 -0.56277,-1.85022 -1.1929,-2.64492 -1.43792,-1.64298 -3.09831,-2.31787 -4.98119,-2.02468 -1.88289,0.29325 -3.59024,1.06345 -5.12207,2.3106 -0.41479,0.33252 -0.82639,0.67568 -1.23478,1.02951 -0.40839,0.35388 -0.81483,0.70353 -1.21932,1.04896 -0.40594,0.36693 -0.80961,0.72672 -1.21099,1.07938 -0.40137,0.35271 -0.80887,0.69438 -1.22248,1.02501 -0.26131,0.20606 -0.53361,0.40494 -0.81689,0.59665 -0.28326,0.19176 -0.56587,0.37767 -0.84782,0.55774 -0.28286,0.20114 -0.56378,0.39805 -0.84275,0.59075 -0.27895,0.19274 -0.55471,0.39614 -0.82728,0.6102 -0.59904,0.44022 -1.16752,1.03867 -1.70541,1.79537 -0.53788,0.75674 -0.56337,1.50559 -0.0765,2.24656 0.40668,0.46147 0.80238,0.6094 1.18712,0.44379 0.38476,-0.16558 0.87607,-0.19717 1.47393,-0.0948 0.59788,0.10245 1.41984,0.78643 2.46588,2.05195 z"
         style="font-size:33.13913345px;line-height:0%;font-family:Cooper Std Black;-inkscape-font-specification:Cooper Std Black"
         id="path4307"
         inkscape:connector-curvature="0" />
      <path
         d="m 349.04431,236.76115 c -0.18381,0.10115 -0.4091,0.19613 -0.67587,0.28496 -0.26678,0.0889 -0.46749,0.0179 -0.60213,-0.21286 -0.0793,-0.22408 -0.13241,-0.5807 -0.15939,-1.06985 -0.027,-0.48911 -0.0465,-0.85192 -0.0586,-1.08842 -0.0426,-0.26353 -0.0732,-0.73055 -0.0917,-1.40106 -0.0185,-0.67047 0.13945,-1.12321 0.47396,-1.35821 0.35023,-0.11545 0.73435,-0.0415 1.15237,0.22177 0.418,0.26333 0.75903,0.50252 1.02308,0.71757 0.26963,0.18903 0.66944,0.49401 1.19942,0.91493 0.52998,0.42096 0.8729,0.76094 1.02877,1.01994 0.0661,0.22858 -0.0417,0.42486 -0.3236,0.58883 -0.28188,0.164 -0.51664,0.28151 -0.70428,0.35252 z m -5.07908,4.67927 c 9.5e-4,0.61023 -0.0107,1.28765 -0.0351,2.03227 -0.0243,0.74463 -0.10597,1.40839 -0.2449,1.99127 -0.27154,0.69484 -0.65905,1.23994 -1.16252,1.6353 -0.50348,0.39536 -0.63456,0.92385 -0.39326,1.58545 0.15249,0.52986 0.58749,0.8355 1.30501,0.91693 0.71752,0.0814 2.12088,-0.34512 4.21009,-1.27965 0.43981,-0.1872 0.99292,-0.46915 1.65934,-0.84585 0.66641,-0.37668 1.22003,-0.82339 1.66087,-1.34012 0.44081,-0.51673 0.54275,-1.07875 0.30581,-1.68607 -0.39655,-0.65768 -0.88933,-0.88695 -1.47834,-0.68781 -0.58902,0.19916 -1.03717,0.0679 -1.34445,-0.39374 -0.31728,-0.7135 -0.29693,-1.25528 0.061,-1.62536 0.35795,-0.37007 0.93859,-0.72091 1.74191,-1.05253 2.34752,-1.09688 3.92434,-1.72226 4.73046,-1.87613 0.8061,-0.15385 1.32347,0.11277 1.55211,0.79986 0.1296,0.48794 -0.0506,0.90527 -0.54053,1.25198 -0.48998,0.34674 -0.62553,0.86209 -0.40665,1.54605 0.42672,0.88896 1.28932,1.16074 2.58779,0.81533 1.29843,-0.3454 3.0264,-1.03201 5.1839,-2.05983 0.5529,-0.23398 1.26792,-0.5829 2.14506,-1.04677 0.87709,-0.46385 1.61474,-1.01187 2.21295,-1.64408 0.59815,-0.63219 0.7553,-1.3178 0.47145,-2.05683 -0.25582,-0.52477 -0.55074,-0.76675 -0.88478,-0.72592 -0.33409,0.0408 -0.73793,0.075 -1.21155,0.10253 -0.47366,0.0275 -1.04773,-0.24108 -1.72223,-0.80585 -0.82609,-0.73174 -2.11284,-1.82218 -3.86024,-3.27132 -1.74744,-1.4491 -3.42259,-2.82392 -5.02546,-4.12444 -1.60289,-1.30049 -2.60057,-2.09369 -2.99303,-2.37961 -1.06326,-0.80243 -2.26014,-1.49852 -3.59065,-2.08829 -1.33053,-0.58971 -2.66275,-0.62339 -3.99669,-0.10104 -1.31639,0.62593 -2.10165,1.40371 -2.35579,2.33335 -0.25414,0.92969 -0.13147,1.9222 0.36799,2.97753 0.51837,1.22351 0.8306,2.55907 0.9367,4.00667 0.10609,1.44763 0.15025,2.8142 0.13248,4.09973 z"
         style="font-size:33.13913345px;line-height:0%;font-family:Cooper Std Black;-inkscape-font-specification:Cooper Std Black"
         id="path4309"
         inkscape:connector-curvature="0" />
      <path
         d="m 399.25072,224.45677 c 0.0503,0.16909 0.0465,0.6319 -0.0114,1.38842 -0.0579,0.75654 -0.40735,1.51855 -1.0483,2.28603 -0.64099,0.76748 -1.81094,1.25218 -3.50986,1.4541 -1.74053,0.13119 -3.06015,-0.33837 -3.95885,-1.40866 -0.89872,-1.07028 -1.4305,-2.5993 -1.59534,-4.58705 l -0.53759,-6.07378 c -0.0292,-1.28295 0.14851,-2.08767 0.53301,-2.41415 0.38448,-0.32644 0.76792,-0.5604 1.15032,-0.70188 0.38237,-0.14143 0.55583,-0.57612 0.52037,-1.30409 0.008,-0.66401 -0.44514,-1.16863 -1.36076,-1.51386 -0.91564,-0.34518 -2.68588,-0.4089 -5.31073,-0.19115 -2.21844,0.2165 -3.76748,0.52036 -4.64711,0.91157 -0.87963,0.39126 -1.37921,0.77473 -1.49875,1.15042 -0.11953,0.37573 -0.14837,0.64854 -0.0865,0.81842 0.15685,0.67576 0.57232,1.17266 1.24643,1.49071 0.67411,0.31809 1.069,0.9582 1.18466,1.92035 l 0.67491,7.62523 c -0.0281,0.15394 0.017,0.75363 0.13532,1.79907 0.11835,1.04545 0.53134,2.20724 1.23896,3.48539 0.70763,1.27815 1.93129,2.34324 3.67099,3.19527 1.73968,0.85204 4.2168,1.16162 7.43136,0.92873 3.72834,-0.41933 6.34235,-1.35918 7.84202,-2.81957 1.49963,-1.46038 2.35746,-2.94713 2.57349,-4.46024 0.21598,-1.5131 0.2627,-2.55841 0.14014,-3.13593 l -0.78886,-8.9126 c -0.0542,-0.96017 0.10395,-1.60955 0.47446,-1.94815 0.37046,-0.33855 0.74662,-0.61293 1.12849,-0.82316 0.38182,-0.21018 0.5627,-0.60281 0.54263,-1.17791 -0.0926,-0.62306 -0.46158,-1.04301 -1.1071,-1.25985 -0.64556,-0.21679 -1.35137,-0.32107 -2.11743,-0.31284 -0.7661,0.008 -1.37622,0.0384 -1.83036,0.0905 -0.49126,0.0299 -1.13791,0.1069 -1.93993,0.23085 -0.80207,0.12399 -1.51886,0.35501 -2.15038,0.69305 -0.63156,0.33808 -0.93719,0.84321 -0.91691,1.51538 0.0871,0.58478 0.36566,0.93881 0.83577,1.06208 0.47008,0.12331 0.94813,0.33647 1.43415,0.63946 0.48599,0.30304 0.79639,1.0165 0.93121,2.1404 z"
         style="font-size:33.13913345px;line-height:0%;font-family:Cooper Std Black;-inkscape-font-specification:Cooper Std Black"
         id="path4311"
         inkscape:connector-curvature="0" />
      <path
         d="m 421.68816,212.80832 c -0.57364,-0.74383 -1.08075,-1.24162 -1.52135,-1.49337 -0.44063,-0.25171 -1.14059,-0.44542 -2.0999,-0.58113 -0.53326,-0.10423 -1.26274,-0.20661 -2.18843,-0.30713 -0.92571,-0.10049 -1.79092,-0.0585 -2.59563,0.12581 -0.80473,0.18441 -1.29224,0.65181 -1.46254,1.40221 -0.074,0.61019 0.0716,1.03514 0.43676,1.27483 0.36518,0.23974 0.74746,0.5569 1.14683,0.9515 0.39936,0.39464 0.61331,1.12938 0.64185,2.20425 -0.0219,1.20689 -0.11182,2.40675 -0.2699,3.59956 -0.15808,1.19284 -0.33796,2.37788 -0.53965,3.55512 -0.12346,0.76193 -0.28084,1.58963 -0.47215,2.4831 -0.19132,0.89348 -0.40323,1.6954 -0.63573,2.40576 -0.24005,0.64398 -0.55528,1.05726 -0.94568,1.23984 -0.39041,0.18258 -0.75936,0.34818 -1.10685,0.49678 -0.34749,0.14861 -0.57688,0.49393 -0.68818,1.03597 -0.0827,0.70308 0.14199,1.26959 0.67402,1.69955 0.53203,0.42995 1.16708,0.7556 1.90515,0.97694 0.73807,0.22135 1.37481,0.37064 1.91024,0.44788 0.54252,0.1008 1.2013,0.16417 1.97635,0.19009 0.77503,0.0259 1.48475,-0.0839 2.12915,-0.32957 0.64439,-0.24563 1.04188,-0.72538 1.19249,-1.43924 0.0643,-0.50459 -0.0365,-0.86411 -0.30242,-1.07855 -0.26591,-0.21443 -0.55456,-0.46061 -0.86596,-0.73853 -0.31143,-0.27791 -0.50327,-0.76438 -0.57552,-1.45941 -0.0231,-0.4544 -0.005,-0.95247 0.0531,-1.4942 0.0585,-0.54172 0.12792,-1.04806 0.20833,-1.51901 0.049,-0.42082 0.18811,-0.96746 0.41718,-1.63992 0.22905,-0.67244 0.59322,-1.00566 1.09253,-0.99966 0.35096,0.0823 0.68753,0.29033 1.0097,0.62399 0.32214,0.33367 0.58398,0.6385 0.7855,0.9145 l 8.61109,10.7222 c 0.20828,0.26032 0.44001,0.49303 0.69522,0.69811 0.25516,0.20508 0.54528,0.33825 0.87036,0.39952 0.7219,0.0715 1.28561,-0.25193 1.69114,-0.97022 0.40547,-0.71829 0.70273,-1.53839 0.89178,-2.46028 0.189,-0.9219 0.31976,-1.6525 0.39228,-2.19182 l 1.39552,-8.46871 c 0.0991,-0.65677 0.2403,-1.40317 0.42357,-2.23921 0.18322,-0.83603 0.42798,-1.54857 0.73429,-2.13764 0.44618,-0.59747 0.96336,-0.92507 1.55155,-0.98279 0.58814,-0.0577 0.98117,-0.49812 1.17912,-1.32125 0.0861,-0.74188 -0.15474,-1.31065 -0.72266,-1.70632 -0.56799,-0.39564 -1.23652,-0.67912 -2.00561,-0.85045 -0.76915,-0.17129 -1.41236,-0.29138 -1.92965,-0.36027 -0.48816,-0.0949 -1.10138,-0.17815 -1.83965,-0.24966 -0.73832,-0.0715 -1.41949,-0.0141 -2.04349,0.17202 -0.62404,0.18619 -1.00871,0.6183 -1.15401,1.29631 -0.0687,0.80735 0.1584,1.34856 0.68125,1.62361 0.5228,0.27509 0.88049,0.73706 1.07306,1.38591 0.0605,0.42281 0.0618,0.92402 0.004,1.50364 -0.0578,0.57965 -0.12447,1.08643 -0.20016,1.52035 -0.0374,0.3248 -0.14049,0.70385 -0.30913,1.13715 -0.16868,0.43332 -0.45319,0.63973 -0.85352,0.61923 -0.31207,-0.085 -0.64618,-0.31638 -1.00234,-0.69415 -0.35619,-0.37774 -0.62778,-0.68278 -0.81478,-0.91513 z"
         style="font-size:33.13913345px;line-height:0%;font-family:Cooper Std Black;-inkscape-font-specification:Cooper Std Black"
         id="path4313"
         inkscape:connector-curvature="0" />
      <path
         d="m 442.77584,230.0992 c -0.78553,2.12388 -1.39631,3.57941 -1.83235,4.36658 -0.43605,0.78718 -0.78044,1.22851 -1.03318,1.324 -0.38131,0.16524 -0.79079,0.28704 -1.22846,0.36539 -0.43767,0.0784 -0.75983,0.34694 -0.96649,0.80574 -0.19892,0.66655 -0.0165,1.26653 0.54736,1.79992 0.56382,0.53339 1.24083,0.98282 2.03104,1.34829 0.7902,0.36546 1.42541,0.62958 1.90564,0.79235 2.23658,0.80794 3.90749,1.27095 5.01274,1.38903 1.10523,0.11807 1.85101,0.0454 2.23734,-0.21813 0.38631,-0.2635 0.61939,-0.56363 0.69923,-0.90041 0.15352,-0.46433 0.11658,-0.84855 -0.11081,-1.15265 -0.22742,-0.30411 -0.50446,-0.63526 -0.83113,-0.99346 -0.17646,-0.16283 -0.30137,-0.37342 -0.37474,-0.63178 -0.0734,-0.25835 -0.007,-0.79091 0.19948,-1.59768 0.20636,-0.80677 0.64096,-2.11418 1.30381,-3.92224 l 1.13053,-3.07978 c 0.40959,-1.14989 0.85432,-2.26923 1.33418,-3.35805 0.47982,-1.08879 0.93528,-1.78059 1.36636,-2.07539 0.52484,-0.2177 1.03047,-0.34097 1.51691,-0.36983 0.48639,-0.0288 0.84169,-0.29553 1.06591,-0.80012 0.2186,-0.70594 0.049,-1.33737 -0.50879,-1.89428 -0.55783,-0.55689 -1.26247,-1.03433 -2.11394,-1.43233 -0.8515,-0.39797 -1.60844,-0.71156 -2.27084,-0.9408 -0.27684,-0.11728 -0.98137,-0.34453 -2.1136,-0.68173 -1.13225,-0.33716 -2.2756,-0.53721 -3.43006,-0.60016 -1.15448,-0.0629 -1.90346,0.25834 -2.24695,0.96376 -0.16682,0.56464 -0.0809,1.04774 0.25783,1.44932 0.3387,0.40161 0.62922,0.88038 0.87155,1.43632 0.11674,0.22893 0.10614,0.72661 -0.0318,1.49303 -0.13794,0.76645 -0.55669,2.11155 -1.25624,4.0353 z"
         style="font-size:33.13913345px;line-height:0%;font-family:Cooper Std Black;-inkscape-font-specification:Cooper Std Black"
         id="path4315"
         inkscape:connector-curvature="0" />
      <path
         d="m 479.75425,239.80516 c 1.11705,-0.75106 1.87722,-1.15493 2.28053,-1.21162 0.40324,-0.0567 0.89545,0.074 1.47662,0.39196 0.37566,0.16763 0.7407,0.22308 1.09511,0.16635 0.35434,-0.0567 0.64943,-0.27362 0.88529,-0.65071 0.34894,-0.47619 0.3362,-1.02432 -0.0382,-1.64438 -0.37448,-0.62005 -1.43333,-1.44992 -3.17655,-2.48963 -0.41103,-0.25824 -1.00072,-0.58081 -1.76908,-0.96772 -0.76841,-0.38688 -1.53152,-0.63804 -2.28931,-0.75348 -0.75784,-0.11541 -1.32638,0.10496 -1.70562,0.66111 -0.24304,0.54929 -0.19456,1.0207 0.14543,1.41423 0.33993,0.39354 0.40527,0.83642 0.19603,1.32865 -0.29637,0.39263 -0.91728,0.91094 -1.86274,1.55492 -0.94551,0.644 -1.65199,1.1117 -2.11946,1.40311 -0.37443,0.25744 -0.85365,0.56598 -1.43767,0.92562 -0.58405,0.35965 -1.11604,0.41562 -1.59595,0.16791 -0.27892,-0.2323 -0.39843,-0.59172 -0.35854,-1.07826 0.0399,-0.48654 0.0805,-0.90523 0.12199,-1.25609 0.0933,-1.01235 0.19813,-2.06846 0.31438,-3.16835 0.11622,-1.09987 0.26143,-1.83372 0.43564,-2.20153 0.26331,-0.31509 0.65667,-0.45944 1.18009,-0.43308 0.52337,0.0264 0.96312,-0.19641 1.31924,-0.6684 0.13296,-0.13404 0.21097,-0.38973 0.23402,-0.76706 0.023,-0.37731 -0.30082,-0.92765 -0.97145,-1.65102 -0.67068,-0.72335 -1.98004,-1.67113 -3.92809,-2.84334 -0.52476,-0.32669 -1.27981,-0.72328 -2.26515,-1.18978 -0.98537,-0.46646 -1.96207,-0.76313 -2.93009,-0.89 -0.96804,-0.12683 -1.68845,0.15583 -2.16121,0.84799 -0.17923,0.30309 -0.25551,0.59485 -0.22885,0.87527 0.0267,0.28047 0.16889,0.52821 0.42674,0.74322 0.49182,0.36866 0.78579,0.79114 0.8819,1.26744 0.0961,0.47633 0.0771,1.2816 -0.057,2.41579 l -1.74554,15.9075 c -0.11902,0.84959 -0.11975,1.58866 -0.002,2.21723 0.11755,0.62856 0.57174,1.18428 1.36257,1.66718 0.76727,0.41282 1.49471,0.48206 2.18232,0.20772 0.68757,-0.27435 1.35258,-0.63665 1.99502,-1.08689 z"
         style="font-size:33.13913345px;line-height:0%;font-family:Cooper Std Black;-inkscape-font-specification:Cooper Std Black"
         id="path4317"
         inkscape:connector-curvature="0" />
      <path
         d="m 493.51078,243.54754 c -0.51919,-0.56735 -1.16443,-1.137 -1.93572,-1.70893 -0.77132,-0.5719 -1.51668,-0.54092 -2.23607,0.0929 -0.46337,0.5337 -0.56968,0.96736 -0.31895,1.30099 0.2507,0.33366 0.40712,0.78589 0.46925,1.35671 0.0621,0.57084 -0.42142,1.47887 -1.45056,2.72409 -1.23665,1.46995 -2.16769,2.55741 -2.79315,3.2624 -0.62547,0.70501 -1.28164,1.38353 -1.96851,2.03557 -0.68688,0.65206 -1.74076,1.63362 -3.16163,2.9447 -0.84448,0.74292 -1.52035,1.09555 -2.02759,1.05789 -0.50725,-0.0376 -0.94065,-0.13472 -1.3002,-0.29118 -0.35956,-0.15647 -0.74005,-0.0415 -1.14145,0.34504 -0.20232,0.14983 -0.33213,0.42799 -0.38942,0.83448 -0.0573,0.4065 0.28433,0.98185 1.02489,1.72607 l 9.90086,9.35295 c 0.40761,0.38885 0.76773,0.75563 1.08034,1.10033 0.31259,0.34468 0.58906,0.65524 0.82941,0.93167 0.21937,0.27846 0.4069,0.51829 0.56257,0.71948 0.15564,0.20117 0.27592,0.34328 0.36083,0.42634 0.35602,0.28679 0.95349,0.3323 1.79243,0.13653 0.83891,-0.19579 1.71027,-0.53315 2.61408,-1.01207 0.90378,-0.47894 1.631,-0.99974 2.18167,-1.56238 0.33943,-0.35934 0.56546,-0.79164 0.67808,-1.29689 0.11258,-0.50526 -0.0134,-0.95098 -0.37796,-1.33716 -0.63816,-0.52348 -1.31903,-0.61118 -2.04261,-0.26312 -0.72362,0.34805 -1.61183,0.5406 -2.66464,0.57766 -1.05285,0.037 -2.39216,-0.67267 -4.01796,-2.12915 -0.85299,-0.76076 -1.43988,-1.36976 -1.76066,-1.827 -0.32081,-0.45726 -0.3165,-0.97716 0.0129,-1.5597 0.3294,-0.58255 1.04293,-1.44214 2.14059,-2.57877 0.36287,-0.42838 0.75753,-0.76975 1.18398,-1.02412 0.42643,-0.25437 0.89198,-0.16409 1.39665,0.27086 0.73883,0.75705 0.99242,1.41026 0.76077,1.95964 -0.23168,0.54938 -0.51554,1.04945 -0.85158,1.50022 -0.33607,0.45076 -0.29126,0.90675 0.13443,1.36797 0.50289,0.41907 1.10402,0.4911 1.80338,0.21609 0.69932,-0.27502 1.3702,-0.68076 2.01263,-1.21722 0.6424,-0.53647 1.12967,-0.98734 1.46181,-1.35262 0.32951,-0.33395 0.73435,-0.81373 1.21449,-1.43935 0.4801,-0.62561 0.8333,-1.27236 1.05959,-1.94025 0.22624,-0.66788 0.12336,-1.23219 -0.30864,-1.69293 -0.56252,-0.4689 -1.08595,-0.52607 -1.57029,-0.17151 -0.48439,0.35457 -0.97545,0.70281 -1.47317,1.04473 -0.49777,0.34191 -1.04797,0.25946 -1.65059,-0.24736 -0.73275,-0.6409 -1.11081,-1.1234 -1.13418,-1.44751 -0.0234,-0.3241 0.29587,-0.80887 0.95783,-1.45429 1.20618,-1.41057 2.11258,-2.23535 2.7192,-2.47434 0.60658,-0.23898 1.52721,0.26032 2.76191,1.49789 1.43964,1.41404 2.21473,2.52443 2.32526,3.3312 0.11048,0.80676 0.0724,1.47319 -0.11414,1.99929 -0.18663,0.5261 -0.006,1.07517 0.54263,1.64721 0.48453,0.41501 0.98995,0.53346 1.51626,0.35537 0.52626,-0.1781 0.98455,-0.48026 1.37487,-0.90648 0.5772,-0.60199 1.08736,-1.44968 1.53049,-2.54307 0.44307,-1.09338 0.35963,-2.00036 -0.25032,-2.72095 -0.1555,-0.10887 -0.55456,-0.33389 -1.19717,-0.67505 -0.64267,-0.34115 -1.75238,-1.23749 -3.32911,-2.68901 z"
         style="font-size:33.13913345px;line-height:0%;font-family:Cooper Std Black;-inkscape-font-specification:Cooper Std Black"
         id="path4319"
         inkscape:connector-curvature="0" />
      <path
         d="m 512.89147,272.63692 c 0.43689,-0.28933 0.82676,-0.47439 1.16962,-0.5552 0.34281,-0.0808 0.68219,0.11818 1.01814,0.59693 0.49563,0.7966 0.56165,1.50851 0.19807,2.13574 -0.36364,0.62723 -0.90298,1.16822 -1.61804,1.62298 -0.84811,0.59209 -1.6246,0.86838 -2.32948,0.82885 -0.70492,-0.0395 -1.35724,-0.497 -1.95695,-1.37242 -0.27997,-0.43659 -0.31108,-0.76384 -0.0933,-0.98174 0.2177,-0.2179 0.5274,-0.42545 0.92909,-0.62265 z m -13.60449,-0.24746 c -1.16406,0.74936 -2.05385,1.09126 -2.66937,1.0257 -0.61554,-0.0656 -1.11208,-0.2115 -1.48962,-0.43783 -0.37755,-0.22633 -0.79137,-0.20597 -1.24146,0.0611 -0.62879,0.48305 -0.86035,1.15395 -0.6947,2.01271 0.16566,0.85875 0.49215,1.7155 0.97948,2.57025 0.48732,0.85474 0.89909,1.51761 1.2353,1.98862 1.46962,2.1532 2.5882,3.45379 3.35574,3.90176 0.76752,0.44795 1.38193,0.46946 1.84323,0.0645 0.5529,-0.45186 0.76203,-0.9464 0.62739,-1.48364 -0.13466,-0.53725 0.0236,-1.07743 0.4749,-1.62056 0.3516,-0.33668 0.75886,-0.68347 1.22179,-1.04035 0.46292,-0.3569 0.90023,-0.674 1.31196,-0.95129 0.83004,-0.56576 1.39009,-0.85412 1.68013,-0.86509 0.29002,-0.011 0.5196,0.14387 0.68874,0.46453 0.47259,0.75384 0.57266,1.45942 0.30021,2.11673 -0.27249,0.6573 -0.69227,1.27415 -1.25934,1.85056 -1.61293,1.58368 -2.73794,3.10521 -3.37505,4.56459 -0.63712,1.45936 -0.2577,3.25429 1.13826,5.38481 1.06402,1.52321 2.04419,2.48572 2.94051,2.88753 0.89629,0.40177 1.61327,0.41231 2.15094,0.0316 0.49973,-0.36676 0.68432,-0.72204 0.55378,-1.06583 -0.13057,-0.34383 -0.22468,-0.73893 -0.28232,-1.1853 -0.0577,-0.4464 0.27272,-1.00682 0.99119,-1.68125 1.33743,-1.16516 2.21699,-2.24593 2.63867,-3.2423 0.42164,-0.99639 0.47856,-2.0813 0.17076,-3.25473 -0.0549,-0.21451 -0.0846,-0.42113 -0.0888,-0.61986 -0.004,-0.19874 0.0904,-0.36936 0.28408,-0.51185 0.16038,-0.1042 0.30454,-0.13994 0.43248,-0.1072 0.1279,0.0327 0.26575,0.0912 0.41353,0.17554 0.90747,0.50837 1.85047,0.71781 2.829,0.62833 0.97848,-0.0895 1.88831,-0.41753 2.7295,-0.98411 1.74958,-1.30612 2.55126,-2.90915 2.40502,-4.8091 -0.14629,-1.89996 -0.78171,-3.66192 -1.90627,-5.28589 -0.29933,-0.43934 -0.60953,-0.87632 -0.9306,-1.31093 -0.32113,-0.43461 -0.6382,-0.86695 -0.9512,-1.29702 -0.33433,-0.43319 -0.66173,-0.86355 -0.98219,-1.29108 -0.3205,-0.42753 -0.62953,-0.8603 -0.92708,-1.29832 -0.18516,-0.27651 -0.36232,-0.56341 -0.53147,-0.86071 -0.1692,-0.29729 -0.33263,-0.59347 -0.49029,-0.88854 -0.17858,-0.29761 -0.35311,-0.59296 -0.52358,-0.88604 -0.17052,-0.29306 -0.35191,-0.58377 -0.54418,-0.87212 -0.39242,-0.6314 -0.94497,-1.24458 -1.65766,-1.83957 -0.71273,-0.59496 -1.45734,-0.67847 -2.23385,-0.25055 -0.49163,0.36966 -0.66982,0.75269 -0.53455,1.14912 0.13523,0.39644 0.12861,0.88872 -0.0199,1.47684 -0.14852,0.58813 -0.8942,1.35455 -2.23706,2.29926 z"
         style="font-size:33.13913345px;line-height:0%;font-family:Cooper Std Black;-inkscape-font-specification:Cooper Std Black"
         id="path4321"
         inkscape:connector-curvature="0" />
      <path
         d="m 517.91969,296.77951 c -0.40557,1.5201 -0.55931,2.93445 -0.46123,4.24304 0.0981,1.30859 0.14902,2.41588 0.15288,3.32189 0.004,0.90598 -0.33834,1.51513 -1.02655,1.82745 -0.59668,0.17413 -1.11841,0.0236 -1.56519,-0.45171 -0.4468,-0.47529 -0.74431,-0.91231 -0.89254,-1.31107 -0.67579,-1.85739 -0.78425,-3.3494 -0.32539,-4.47604 0.45885,-1.12664 0.99524,-2.06022 1.60915,-2.80075 0.6139,-0.74054 0.81554,-1.46034 0.60492,-2.15941 -0.201,-0.45048 -0.50673,-0.7116 -0.9172,-0.78335 -0.41048,-0.0717 -0.83117,-0.0189 -1.26206,0.15863 -0.87054,0.3481 -1.83381,0.94324 -2.88982,1.78543 -1.05601,0.84218 -1.68658,1.73225 -1.89171,2.6702 -0.10013,1.1346 0.007,2.45621 0.31999,3.96486 0.31345,1.50864 0.68623,2.80374 1.11833,3.88532 1.52231,3.51848 3.38558,5.76846 5.58982,6.74995 2.20422,0.98145 4.24764,1.07893 6.13026,0.29243 1.14292,-0.45899 2.02871,-1.09147 2.65736,-1.89741 0.62862,-0.80598 1.0616,-1.81014 1.29896,-3.01247 0.26214,-1.52094 0.30953,-2.93446 0.14215,-4.24056 -0.16741,-1.30611 -0.2518,-2.41541 -0.25317,-3.3279 -10e-4,-0.91249 0.37797,-1.53879 1.13816,-1.87888 0.55739,-0.19781 1.03591,-0.14743 1.43556,0.15112 0.3996,0.29855 0.69706,0.6984 0.89238,1.19953 0.37771,1.06579 0.42784,2.06672 0.1504,3.00281 -0.27749,0.93607 -0.58035,1.80894 -0.90856,2.61861 -0.32826,0.80965 -0.37966,1.55774 -0.15421,2.24426 0.25202,0.56464 0.64839,0.92178 1.18912,1.07144 0.54068,0.14963 1.08421,0.11736 1.6306,-0.0968 1.30603,-0.61228 2.28018,-1.50641 2.92244,-2.68237 0.64221,-1.17598 0.8656,-2.07216 0.67018,-2.68854 -0.14583,-0.31121 -0.32924,-0.56045 -0.55023,-0.7477 -0.22105,-0.18727 -0.38285,-0.38268 -0.4854,-0.58625 -0.0735,-0.2867 -0.16514,-0.92989 -0.27493,-1.92958 -0.10984,-0.99971 -0.35276,-2.01961 -0.72875,-3.05971 -1.29811,-2.94715 -2.9971,-4.88069 -5.097,-5.80064 -2.09994,-0.91995 -3.99955,-1.04095 -5.69883,-0.36302 -1.10449,0.46213 -2.00867,1.14514 -2.71254,2.04902 -0.7039,0.90389 -1.22301,1.92329 -1.55735,3.0582 z"
         style="font-size:33.13913345px;line-height:0%;font-family:Cooper Std Black;-inkscape-font-specification:Cooper Std Black"
         id="path4323"
         inkscape:connector-curvature="0" />
      <path
         d="m 525.39269,318.26337 c -2.20804,0.50249 -3.76082,0.78617 -4.65835,0.85104 -0.89754,0.0649 -1.45535,0.0176 -1.67341,-0.14195 -0.34673,-0.22909 -0.67247,-0.50551 -0.97721,-0.82926 -0.30476,-0.32376 -0.70572,-0.44684 -1.2029,-0.36926 -0.66696,0.19757 -1.06978,0.67819 -1.20847,1.44184 -0.13869,0.76366 -0.14522,1.57624 -0.0196,2.43775 0.12564,0.86151 0.25148,1.53784 0.37753,2.02898 0.5453,2.31467 1.07042,3.96711 1.57539,4.95733 0.50496,0.9902 0.97333,1.5751 1.40509,1.75472 0.43176,0.17958 0.81048,0.21081 1.13617,0.0937 0.47278,-0.12511 0.7744,-0.36597 0.90486,-0.72257 0.13046,-0.35663 0.25645,-0.76959 0.37798,-1.23891 0.04,-0.23675 0.1481,-0.45643 0.32439,-0.65904 0.17629,-0.20263 0.65866,-0.4379 1.44713,-0.70583 0.78845,-0.26795 2.12093,-0.61827 3.99742,-1.05095 l 3.19716,-0.7358 c 1.18686,-0.2852 2.36735,-0.52429 3.54147,-0.71727 1.17407,-0.193 2.00233,-0.1895 2.48477,0.0105 0.46908,0.32063 0.84859,0.67677 1.13852,1.06842 0.28989,0.39163 0.7074,0.5435 1.25252,0.4556 0.7107,-0.20261 1.14689,-0.68965 1.30858,-1.4611 0.16164,-0.77147 0.17653,-1.6225 0.0447,-2.5531 -0.13191,-0.9306 -0.28283,-1.73592 -0.45274,-2.41595 -0.053,-0.29595 -0.24762,-1.01019 -0.5838,-2.14272 -0.33624,-1.13253 -0.79336,-2.19944 -1.37139,-3.20075 -0.57807,-1.00131 -1.25635,-1.4531 -2.03484,-1.35538 -0.56406,0.16878 -0.92173,0.50471 -1.07301,1.00781 -0.15132,0.5031 -0.39358,1.008 -0.72681,1.51471 -0.12796,0.22285 -0.55058,0.48589 -1.26785,0.78911 -0.71731,0.30322 -2.07269,0.68741 -4.06614,1.15257 z"
         style="font-size:33.13913345px;line-height:0%;font-family:Cooper Std Black;-inkscape-font-specification:Cooper Std Black"
         id="path4325"
         inkscape:connector-curvature="0" />
      <path
         d="m 542.30585,338.33379 c -0.0368,-0.65831 -0.045,-1.22084 -0.0244,-1.68759 0.0205,-0.46677 0.0478,-0.85716 0.0819,-1.17119 0.0485,-0.31561 0.0881,-0.57257 0.11883,-0.77089 0.0307,-0.19832 0.0433,-0.35403 0.0378,-0.46712 -0.15579,-0.99687 -0.9428,-1.89907 -2.36103,-2.70662 -1.41828,-0.80755 -2.87933,-1.1954 -4.38315,-1.16354 -0.61991,0.0428 -1.15463,0.25672 -1.60416,0.64183 -0.44955,0.38511 -0.66684,0.90334 -0.65187,1.55468 0.1018,0.87338 0.48254,1.56246 1.14221,2.06724 0.65964,0.50477 1.31524,0.94339 1.96682,1.31587 0.65154,0.37247 1.01608,0.79693 1.09362,1.2734 0.0892,0.24907 -0.035,0.50291 -0.37255,0.76151 -0.33765,0.2586 -1.33921,0.41672 -3.00469,0.47439 l -7.32617,0.18274 c -0.46534,0.0139 -1.06902,0.005 -1.81103,-0.0261 -0.74203,-0.0314 -1.31719,-0.11653 -1.72547,-0.25546 -0.56145,-0.36959 -0.91805,-0.88451 -1.06981,-1.54477 -0.15177,-0.66026 -0.62229,-1.00221 -1.41156,-1.02583 -0.8284,0.11688 -1.38612,0.70846 -1.67316,1.77472 -0.28704,1.06625 -0.42686,2.21757 -0.41944,3.45395 0.007,1.23637 0.0386,2.16817 0.0936,2.79543 0.22226,2.98759 0.62436,4.87893 1.20631,5.67405 0.58194,0.79507 1.14575,1.12439 1.69144,0.98796 0.70763,-0.081 1.12031,-0.37026 1.23804,-0.86767 0.11773,-0.49744 0.3255,-1.00038 0.62333,-1.50881 0.29781,-0.50847 1.07066,-0.81973 2.31854,-0.93379 l 10.15459,-0.62144 c 0.19922,-0.0447 0.57603,-0.036 1.13043,0.0263 0.55437,0.0622 0.88476,0.3975 0.99118,1.00591 -0.0155,0.53666 -0.32663,0.98566 -0.93326,1.34703 -0.60667,0.36132 -1.20927,0.78882 -1.80781,1.28249 -0.59857,0.49364 -0.89346,1.20726 -0.88467,2.14087 0.0627,0.84345 0.35238,1.46345 0.86914,1.86 0.51673,0.3965 1.19409,0.56947 2.0321,0.5189 1.81264,-0.19603 3.24843,-0.78606 4.30737,-1.77008 1.05889,-0.98407 1.58187,-1.84194 1.56893,-2.57362 -0.0199,-0.30245 -0.0571,-0.5478 -0.11144,-0.73605 -0.0544,-0.18828 -0.12213,-0.39026 -0.20309,-0.60593 -0.0675,-0.23244 -0.13773,-0.54355 -0.21067,-0.93333 -0.073,-0.38981 -0.13257,-0.93397 -0.17876,-1.63249 z"
         style="font-size:33.13913345px;line-height:0%;font-family:Cooper Std Black;-inkscape-font-specification:Cooper Std Black"
         id="path4327"
         inkscape:connector-curvature="0" />
      <path
         d="m 535.27201,381.71282 c 0.45883,0.65313 0.6995,1.29463 0.722,1.9245 0.0225,0.62982 0.0778,1.17173 0.16607,1.62574 0.0882,0.45395 0.46035,0.74371 1.11642,0.8693 0.70364,0.15501 1.26189,-0.11419 1.67476,-0.80761 0.41283,-0.69347 0.77654,-2.04316 1.09111,-4.04908 0.0852,-0.45165 0.16158,-1.07505 0.22905,-1.87019 0.0674,-0.79519 0.0165,-1.53863 -0.15286,-2.23033 -0.16936,-0.69174 -0.5666,-1.10824 -1.1917,-1.2495 -0.58572,-0.0542 -1.02293,0.0374 -1.31165,0.27467 -0.28874,0.23723 -0.64417,0.34201 -1.06629,0.31434 -0.4264,-0.10953 -0.89207,-0.45617 -1.39701,-1.03994 -0.50496,-0.58381 -0.74815,-1.11268 -0.72954,-1.58661 0.14304,-0.43497 0.59036,-0.83121 1.34195,-1.18872 0.75156,-0.35756 1.34574,-0.52024 1.78255,-0.48806 0.3189,0.0907 0.58455,0.29032 0.79695,0.59883 0.21236,0.30847 0.5189,0.51469 0.91963,0.61866 0.24426,0.0834 0.53601,0.0502 0.87523,-0.0997 0.33919,-0.1499 0.69953,-0.68427 1.08104,-1.60312 0.38147,-0.91888 0.75778,-2.49007 1.12893,-4.71357 0.38921,-2.4931 0.5386,-4.28333 0.44818,-5.37071 -0.0905,-1.08739 -0.2912,-1.75807 -0.60217,-2.01205 -0.31101,-0.25398 -0.60271,-0.3774 -0.87509,-0.37026 -0.71638,-0.0592 -1.24248,0.28795 -1.57829,1.04141 -0.33586,0.75345 -0.99218,1.49074 -1.96897,2.2119 l -4.88324,3.00372 c -0.78315,0.44893 -1.45574,0.73321 -2.01777,0.85285 -0.56206,0.11962 -1.2865,0.10179 -2.17335,-0.0535 -1.56732,-0.25484 -2.76751,-0.49646 -3.60057,-0.72486 -0.83307,-0.22843 -1.41483,-0.45397 -1.74529,-0.67664 -0.52044,-0.45342 -0.79818,-0.99348 -0.83322,-1.62016 -0.035,-0.6267 -0.4429,-1.03674 -1.22359,-1.2301 -0.4687,-0.1765 -1.0378,0.15109 -1.70728,0.98278 -0.66949,0.83168 -1.27696,2.79795 -1.82241,5.89883 -0.10965,0.58588 -0.2136,1.41327 -0.31184,2.48219 -0.0982,1.06887 -0.0512,2.06987 0.14106,3.00299 0.19228,0.93309 0.66935,1.4889 1.43122,1.66744 0.71894,0.0519 1.22402,-0.18256 1.51523,-0.70333 0.29122,-0.5208 0.6676,-0.89355 1.12914,-1.11822 0.31357,-0.10108 0.85665,-0.12936 1.62924,-0.0849 0.77258,0.0445 1.90078,0.18634 3.3846,0.42559 1.10487,0.15205 1.99897,0.37495 2.68231,0.66869 0.68333,0.29371 1.39657,0.85662 2.13972,1.68875 z"
         style="font-size:33.13913345px;line-height:0%;font-family:Cooper Std Black;-inkscape-font-specification:Cooper Std Black"
         id="path4329"
         inkscape:connector-curvature="0" />
    </g>
    <path
       style="fill:#000000;stroke:none"
       d="m 294.89677,409.05911 c 0,2.29853 -1.86332,4.16185 -4.16185,4.16185 -2.29852,0 -4.16185,-1.86332 -4.16185,-4.16185 0,-2.29852 1.86333,-4.16185 4.16185,-4.16185 2.29853,0 4.16185,1.86333 4.16185,4.16185 z"
       transform="matrix(1.138896,0,0,1.1515229,-39.383436,-62.192019)" />
    <path
       sodipodi:type="arc"
       style="fill:#000000;stroke:none"
       d="m 294.89677,409.05911 c 0,2.29853 -1.86332,4.16185 -4.16185,4.16185 -2.29852,0 -4.16185,-1.86332 -4.16185,-4.16185 0,-2.29852 1.86333,-4.16185 4.16185,-4.16185 2.29853,0 4.16185,1.86333 4.16185,4.16185 z"
       transform="matrix(1.138896,0,0,1.1515229,188.56209,-68.534253)" />
    <path
       sodipodi:type="arc"
       style="fill:none;stroke:none"
       d="m 526.17673,387.6553 c 0,40.06003 -53.50401,72.5351 -119.50455,72.5351 -66.00054,0 -119.50455,-32.47507 -119.50455,-72.5351 0,-40.06002 53.50401,-72.53509 119.50455,-72.53509 66.00054,0 119.50455,32.47507 119.50455,72.53509 z"
       transform="matrix(-0.81297203,0.85203598,1.4313338,1.3056267,180.05389,-505.52638)" />
    <g
       style="fill:#fcd116"
       transform="matrix(5.0240126,0,0,4.8816652,405.95014,340.45823)"
       id="g4173">
      <circle
         sodipodi:ry="9"
         sodipodi:rx="9"
         sodipodi:cy="0"
         sodipodi:cx="0"
         cy="0"
         cx="0"
         r="9"
         id="circle4175" />
      <g
         id="j">
        <g
           id="i">
          <g
             id="h">
            <!-- these coordinates are  -1/(1+tan(k*Pi/48)),1-1/(1+tan(k*Pi/48)) -->
            <path
               inkscape:connector-curvature="0"
               d="M -1,0 -0.93848823,0.06151177 0,0 -0.93848823,-0.06151177 z"
               transform="scale(19,19)"
               id="path4180" />
            <path
               inkscape:connector-curvature="0"
               id="g"
               d="m -0.88366349,0.11633651 0.0495742,0.0495742 L 0,0 z"
               transform="scale(19.238092,19.238092)" />
            <use
               height="1052.3622"
               width="744.09448"
               y="0"
               x="0"
               xlink:href="#g"
               transform="scale(1,-1)"
               id="use4183" />
          </g>
          <use
             height="1052.3622"
             width="744.09448"
             y="0"
             x="0"
             xlink:href="#h"
             transform="matrix(0.70710678,0.70710678,-0.70710678,0.70710678,0,0)"
             id="use4185" />
        </g>
        <use
           height="1052.3622"
           width="744.09448"
           y="0"
           x="0"
           xlink:href="#i"
           transform="matrix(0,1,-1,0,0,0)"
           id="use4187" />
      </g>
      <use
         height="1052.3622"
         width="744.09448"
         y="0"
         x="0"
         xlink:href="#j"
         transform="scale(-1,-1)"
         id="use4189" />
    </g>
    <rect
       style="fill:#ffffff;fill-opacity:1;stroke:none"
       id="rect4261"
       width="198.35616"
       height="105.23529"
       x="306.51788"
       y="340.64627" />
    <g
       transform="scale(0.93095898,1.0741612)"
       style="font-size:21.48322296px;font-style:normal;font-variant:normal;font-weight:bold;font-stretch:normal;line-height:125%;letter-spacing:0px;word-spacing:0px;fill:#000000;fill-opacity:1;stroke:none;font-family:Swis721 BdCnOul BT;-inkscape-font-specification:Sans Bold"
       id="text3808">
      <path
         d="m 401.34841,398.66544 c 0.002,1.5692 -0.12102,2.62697 -0.37004,3.1733 -0.24903,0.54634 -0.63769,0.80119 -1.16599,0.76453 -0.23855,-0.007 -0.48059,-0.0349 -0.72612,-0.0838 -0.24553,-0.0489 -0.48758,-0.0768 -0.72612,-0.0838 -0.33339,0.005 -0.62315,0.10706 -0.86926,0.30721 -0.24611,0.20015 -0.37528,0.47012 -0.3875,0.80991 0.0781,0.63216 0.67906,1.09625 1.8029,1.39225 1.12383,0.296 2.30197,0.48494 3.53442,0.56683 1.23244,0.0819 2.05062,0.11775 2.45455,0.10757 0.80408,-0.002 1.7513,-0.0471 2.84166,-0.13614 1.09033,-0.089 2.02359,-0.21121 2.79976,-0.36656 0.42414,-0.0838 0.80466,-0.22342 1.14155,-0.41891 0.33686,-0.1955 0.5149,-0.53063 0.53412,-1.00541 -0.0359,-0.60923 -0.31481,-0.93609 -0.8368,-0.98057 -0.52202,-0.0445 -1.07196,-0.11688 -1.64981,-0.21722 -0.57788,-0.10033 -0.96852,-0.5389 -1.17193,-1.31571 -0.10824,-0.63535 -0.17806,-1.42431 -0.20946,-2.36688 -0.0314,-0.94256 -0.0454,-1.74549 -0.0419,-2.40878 5.7e-4,-0.45033 0.006,-0.93906 0.0175,-1.46621 0.011,-0.52713 0.0238,-1.1555 0.0384,-1.88513 0.0434,-0.83782 0.23272,-1.38396 0.56787,-1.63843 0.33512,-0.25444 0.66715,-0.44063 0.99609,-0.55856 0.32891,-0.1179 0.50579,-0.39097 0.53063,-0.81921 -0.0425,-0.57775 -0.3206,-0.93732 -0.83435,-1.07872 -0.51376,-0.14137 -1.00832,-0.20071 -1.48366,-0.17804 -1.42985,0.007 -2.94243,0.16362 -4.53776,0.4696 -1.59534,0.30602 -2.96104,0.71907 -4.09711,1.23917 -1.13608,0.52013 -1.73015,1.10489 -1.78221,1.75428 0.01,0.30722 0.12276,0.53763 0.33862,0.69122 0.21586,0.15361 0.47535,0.23041 0.77849,0.2304 0.16698,-0.002 0.33571,-0.0116 0.50619,-0.0279 0.17047,-0.0163 0.34619,-0.0256 0.52714,-0.0279 0.66037,-0.005 1.07813,0.13092 1.25326,0.40844 0.17513,0.27755 0.25076,0.72788 0.22691,1.35101 z"
         style="font-size:27.92819023px;letter-spacing:2.36315465px;font-family:Cooper Std Black;-inkscape-font-specification:Cooper Std Black"
         id="path4332"
         inkscape:connector-curvature="0" />
      <path
         d="m 429.73661,404.16723 c 0.95477,-1.26955 1.73325,-2.6194 2.33546,-4.04954 0.60218,-1.43013 0.91288,-2.94754 0.93209,-4.55223 -0.0896,-2.34768 -0.97167,-4.06873 -2.64616,-5.16316 -1.67452,-1.09441 -3.60386,-1.63551 -5.78804,-1.62331 -1.34175,-0.002 -2.63953,0.22896 -3.89335,0.69406 -1.25382,0.46514 -2.28887,1.1785 -3.10516,2.1401 -0.81628,0.96163 -1.23899,2.18597 -1.26813,3.67303 -0.006,1.67218 0.47419,3.18727 1.44178,4.54525 0.96758,1.358 2.46055,2.07714 4.47892,2.15743 0.22342,-0.003 0.44684,-0.0174 0.67027,-0.0419 0.22342,-0.0244 0.44684,-0.0384 0.67027,-0.0419 0.17105,-5.7e-4 0.31069,0.0425 0.41892,0.12917 0.10821,0.0867 0.16406,0.22052 0.16756,0.40146 -0.0332,0.60453 -0.3299,1.29458 -0.8902,2.07015 -0.56031,0.77558 -1.18519,1.3609 -1.87465,1.75596 -0.12336,0.0605 -0.25369,0.15593 -0.39099,0.28627 -0.13732,0.13032 -0.21179,0.26763 -0.22343,0.41193 0.0303,0.2791 0.28617,0.56804 0.7675,0.8668 0.48132,0.29875 1.00609,0.55252 1.5743,0.76129 0.56821,0.20876 0.99781,0.31772 1.28882,0.32686 0.51631,-0.0374 1.13452,-0.36289 1.85462,-0.97644 0.72008,-0.61355 1.40448,-1.29072 2.05321,-2.03149 0.64871,-0.74078 1.12417,-1.32071 1.42639,-1.7398 z m -2.98828,-7.42881 c -5.9e-4,0.40729 -0.11114,0.7657 -0.33164,1.07523 -0.22053,0.30954 -0.54751,0.47245 -0.98097,0.48873 -0.82213,-0.0628 -1.43305,-0.48873 -1.83276,-1.2777 -0.39973,-0.78895 -0.59871,-1.56394 -0.59696,-2.32499 0.002,-0.44218 0.12392,-0.84946 0.36655,-1.22184 0.24262,-0.37236 0.59521,-0.57018 1.05777,-0.59347 0.80524,0.0873 1.39405,0.58301 1.76644,1.48716 0.37236,0.90417 0.55621,1.69314 0.55157,2.36688 z"
         style="font-size:27.92819023px;letter-spacing:2.36315465px;font-family:Cooper Std Black;-inkscape-font-specification:Cooper Std Black"
         id="path4334"
         inkscape:connector-curvature="0" />
      <path
         d="m 442.569,388.97449 c -0.8849,-0.01 -1.5169,-0.0772 -1.89599,-0.20274 -0.3791,-0.12548 -0.66975,-0.25099 -0.87197,-0.37651 -0.20222,-0.12548 -0.48046,-0.19306 -0.83473,-0.20273 -0.679,0.0308 -1.26199,0.48584 -1.74898,1.36497 -0.48699,0.87916 -0.74183,1.99744 -0.76452,3.35483 -0.0175,0.71566 0.12218,1.3999 0.41891,2.0527 0.29673,0.65282 0.85529,1.00192 1.67567,1.04729 0.68251,-0.0214 1.06143,-0.171 1.13677,-0.44891 0.0753,-0.27789 0.3322,-0.55579 0.7706,-0.8337 0.43839,-0.27789 1.54344,-0.42753 3.31514,-0.44891 0.50385,-0.0297 1.15783,-0.0122 1.96193,0.0524 0.80407,0.0646 1.24859,0.35434 1.33355,0.86925 -0.0175,0.27115 -0.11521,0.59464 -0.29324,0.9705 -0.17805,0.37587 -0.33166,0.6854 -0.46081,0.9286 l -5.02701,9.60717 c -0.0483,0.0768 -0.10532,0.18153 -0.17106,0.31419 -0.0658,0.13265 -0.10182,0.25135 -0.10822,0.35608 -0.009,0.26066 0.33688,0.57717 1.03682,0.94954 0.69994,0.37237 1.80658,0.57718 3.31992,0.61442 0.65222,0.006 1.06532,-0.0617 1.2393,-0.20248 0.17396,-0.14081 0.3008,-0.38983 0.38052,-0.74707 l 5.61349,-16.98012 c 0.0582,-0.16639 0.10937,-0.3293 0.1536,-0.48874 0.0442,-0.1594 0.0675,-0.32232 0.0698,-0.48873 -0.0256,-0.49629 -0.21878,-0.80233 -0.5795,-0.91813 -0.36075,-0.11577 -0.73545,-0.16348 -1.12409,-0.14313 z"
         style="font-size:27.92819023px;letter-spacing:2.36315465px;font-family:Cooper Std Black;-inkscape-font-specification:Cooper Std Black"
         id="path4336"
         inkscape:connector-curvature="0" />
      <path
         d="m 469.75629,394.0015 c 1.01586,-0.078 1.72104,-0.5504 2.11554,-1.41734 0.39446,-0.86691 0.58298,-1.66053 0.56554,-2.38085 0.01,-0.56436 -0.0797,-0.91578 -0.26881,-1.05427 -0.18911,-0.13846 -0.53704,-0.19665 -1.0438,-0.17455 l -9.52339,0 c -0.65166,-0.0809 -1.1497,0.032 -1.49414,0.33862 -0.34445,0.30664 -0.81457,1.29226 -1.41036,2.95686 -0.19015,0.50496 -0.43047,1.18936 -0.72095,2.05321 -0.29048,0.86388 -0.55149,1.72619 -0.78301,2.58695 -0.23153,0.86077 -0.35393,1.53897 -0.3672,2.03459 0.0704,0.57544 0.44626,0.93966 1.12759,1.09268 0.68132,0.15303 1.24569,0.24495 1.69312,0.27579 0.79187,0.11171 1.64483,0.37703 2.55889,0.79594 0.91405,0.41892 1.41093,1.07522 1.49065,1.96891 -0.0396,0.70227 -0.34445,1.19683 -0.91464,1.48367 -0.5702,0.28684 -1.16832,0.42532 -1.79436,0.41542 -0.73195,-0.0233 -1.41153,-0.11636 -2.03874,-0.27927 -0.62721,-0.16292 -0.99958,-0.25601 -1.11711,-0.27928 -0.28917,0.0419 -0.49281,0.25833 -0.61092,0.64932 -0.11811,0.39099 -0.17513,0.70518 -0.17106,0.94256 -0.0558,0.53412 0.27928,1.03682 1.0054,1.50811 0.72612,0.47128 2.17837,0.72263 4.35675,0.75405 3.05052,-0.0564 5.49537,-0.73253 7.33454,-2.02826 1.83915,-1.29574 2.78288,-2.87249 2.83119,-4.73028 0.0902,-1.03914 -0.45327,-2.16556 -1.63029,-3.37926 -1.17706,-1.21369 -3.52881,-2.06084 -7.05527,-2.54144 -0.31594,-0.011 -0.62664,-0.0518 -0.93209,-0.12218 -0.30547,-0.0704 -0.46954,-0.27171 -0.49223,-0.60394 0.0192,-0.42705 0.17629,-0.68306 0.47128,-0.76802 0.29498,-0.0849 0.61266,-0.11751 0.95304,-0.0977 z"
         style="font-size:27.92819023px;letter-spacing:2.36315465px;font-family:Cooper Std Black;-inkscape-font-specification:Cooper Std Black"
         id="path4338"
         inkscape:connector-curvature="0" />
    </g>
    <path
       sodipodi:type="arc"
       style="fill:none;stroke:#ff0000;stroke-width:3.5;stroke-miterlimit:4;stroke-dasharray:none"
       id="path3797"
       sodipodi:cx="418.56317"
       sodipodi:cy="360.00873"
       sodipodi:rx="89.182495"
       sodipodi:ry="91.26342"
       d="m 507.74567,360.00873 c 0,50.40339 -39.92837,91.26342 -89.1825,91.26342 -49.25413,0 -89.18249,-40.86003 -89.18249,-91.26342 0,-50.4034 39.92836,-91.26342 89.18249,-91.26342 49.25413,0 89.1825,40.86002 89.1825,91.26342 z"
       transform="matrix(1.2112574,0,0,1.1926348,-101.94775,-82.510958)" />
    <path
       style="fill:none;stroke:#550000;stroke-width:2.93882012;stroke-linecap:square;stroke-linejoin:bevel;stroke-miterlimit:4;stroke-opacity:1;stroke-dasharray:none"
       d="m 358.3889,361.19783 c 16.02559,-0.95871 36.28294,-13.64774 46.49963,0"
       id="path3812"
       inkscape:connector-curvature="0"
       sodipodi:nodetypes="cc" />
    <path
       style="fill:none;stroke:#550000;stroke-width:2.95666313;stroke-linecap:square;stroke-linejoin:miter;stroke-miterlimit:4;stroke-opacity:1;stroke-dasharray:none"
       d="m 452.99545,361.10825 c -16.22078,-0.95871 -36.72485,-13.64774 -47.06598,0"
       id="path3812-8"
       inkscape:connector-curvature="0"
       sodipodi:nodetypes="cc" />
    <path
       style="fill:#000000;fill-opacity:0;stroke:#550000;stroke-width:3;stroke-linecap:butt;stroke-linejoin:miter;stroke-miterlimit:4;stroke-opacity:1;stroke-dasharray:none"
       d="M 358.14077,360.51325 337.79969,401.3568"
       id="path3850"
       inkscape:connector-curvature="0"
       sodipodi:nodetypes="cc" />
    <path
       style="fill:#000000;fill-opacity:0;stroke:#550000;stroke-width:3;stroke-linecap:butt;stroke-linejoin:miter;stroke-miterlimit:4;stroke-opacity:1;stroke-dasharray:none"
       d="m 453.15803,360.46306 21.65486,41.68437"
       id="path3850-9"
       inkscape:connector-curvature="0"
       sodipodi:nodetypes="cc" />
    <path
       style="fill:#550000;stroke:#550000;stroke-width:2;stroke-linecap:butt;stroke-linejoin:miter;stroke-miterlimit:4;stroke-opacity:1;stroke-dasharray:none"
       d="m 405.69596,359.94638 -0.21021,44.7737"
       id="path3870"
       inkscape:connector-curvature="0" />
    <path
       style="fill:#550000;stroke:#550000;stroke-width:2.5;stroke-linecap:butt;stroke-linejoin:miter;stroke-miterlimit:4;stroke-opacity:1;stroke-dasharray:none"
       d="m 339.07586,400.71125 66.39933,0.40985"
       id="path3872"
       inkscape:connector-curvature="0"
       sodipodi:nodetypes="cc" />
    <path
       style="fill:#550000;stroke:#550000;stroke-width:2.5;stroke-linecap:butt;stroke-linejoin:miter;stroke-miterlimit:4;stroke-opacity:1;stroke-dasharray:none"
       d="m 406.11119,401.07248 67.45036,0.5675"
       id="path3872-1"
       inkscape:connector-curvature="0"
       sodipodi:nodetypes="cc" />
    <path
       style="fill:#550000;stroke:#550000;stroke-width:2.5;stroke-linecap:butt;stroke-linejoin:miter;stroke-miterlimit:4;stroke-opacity:1;stroke-dasharray:none"
       d="m 339.58318,400.53048 c 22.03492,-1.26259 41.91843,-18.35625 65.35887,0.40985"
       id="path3872-3"
       inkscape:connector-curvature="0"
       sodipodi:nodetypes="cc" />
    <path
       style="fill:#550000;stroke:#550000;stroke-width:2.74834108;stroke-linecap:butt;stroke-linejoin:miter;stroke-miterlimit:4;stroke-opacity:1;stroke-dasharray:none"
       d="m 473.30149,401.40186 c -23.44914,-1.43387 -43.41969,-20.58622 -68.36457,0.72556"
       id="path3872-3-5"
       inkscape:connector-curvature="0"
       sodipodi:nodetypes="cc" />
    <rect
       style="fill:#550000;fill-opacity:0;stroke:#550000;stroke-width:2.5;stroke-linecap:square;stroke-linejoin:round;stroke-miterlimit:4;stroke-opacity:1;stroke-dasharray:none"
       id="rect3928"
       width="6.2010522"
       height="1.0510257"
       x="402.43777"
       y="402.40784" />
    <g
       transform="matrix(0.99173375,0,0,1,3.0831148,-2)"
       style="font-size:20px;font-style:normal;font-variant:normal;font-weight:bold;font-stretch:normal;line-height:0%;letter-spacing:0px;word-spacing:0px;fill:#000000;fill-opacity:1;stroke:none;font-family:Swis721 BdCnOul BT;-inkscape-font-specification:Sans Bold"
       id="text3801">
      <path
         d="m 317.18804,442.41797 c -0.50011,0.56098 -1.04751,0.91079 -1.64221,1.04943 -0.59472,0.13865 -1.18917,-0.0487 -1.78333,-0.56207 -0.44462,-0.42073 -0.62179,-0.73432 -0.53153,-0.94077 0.0902,-0.20644 0.23761,-0.39546 0.44211,-0.56704 l 2.42049,-2.66475 c 0.14752,-0.19291 0.29983,-0.30854 0.45693,-0.34689 0.15707,-0.0383 0.4019,0.0922 0.73451,0.39159 0.58021,0.55475 0.83991,1.15674 0.77909,1.80598 -0.0609,0.64925 -0.35288,1.26076 -0.87606,1.83452 z m -11.74801,-0.16624 c -0.43666,0.44856 -0.82266,0.64833 -1.15799,0.59931 -0.33534,-0.049 -0.64647,-0.12469 -0.93339,-0.22701 -0.28693,-0.10231 -0.57611,-0.009 -0.86753,0.27954 -0.3155,0.4033 -0.3265,0.89045 -0.033,1.46145 0.2935,0.57101 0.68672,1.11551 1.17967,1.63352 0.49294,0.518 0.88083,0.89916 1.16367,1.14346 0.28724,0.27272 0.71297,0.625 1.27719,1.05684 0.5642,0.43183 1.14227,0.75917 1.73421,0.98203 0.59192,0.22284 1.07308,0.15715 1.44348,-0.19708 0.2677,-0.32624 0.32689,-0.61791 0.17758,-0.87502 -0.14933,-0.25712 -0.24154,-0.58305 -0.27665,-0.97779 -0.0351,-0.39475 0.25249,-0.96168 0.86282,-1.70079 l 0.93592,-1.03037 c 0.0869,-0.0987 0.17286,-0.15166 0.25783,-0.15893 0.0849,-0.007 0.17981,0.037 0.28459,0.13287 0.23757,0.22255 0.47505,0.46528 0.71245,0.7282 0.23738,0.26291 0.48819,0.51774 0.75243,0.7645 1.28018,1.15541 2.6888,1.80132 4.22588,1.93774 1.53704,0.13641 2.92941,-0.44017 4.17713,-1.72975 1.16627,-1.3777 1.59617,-2.83258 1.28969,-4.36464 -0.30651,-1.53207 -1.08575,-2.8694 -2.33769,-4.01201 -0.37843,-0.3248 -1.00159,-0.81518 -1.86948,-1.47115 -0.86792,-0.65595 -1.94853,-1.56184 -3.24182,-2.71769 -0.21999,-0.20251 -0.43372,-0.40744 -0.64117,-0.61482 -0.20749,-0.20735 -0.42121,-0.41229 -0.64117,-0.61482 -0.28907,-0.27741 -0.63108,-0.48539 -1.02601,-0.62394 -0.39496,-0.13852 -0.76064,-0.0438 -1.09706,0.28419 -0.29816,0.36923 -0.36277,0.72724 -0.19382,1.07401 0.16893,0.3468 0.32711,0.70542 0.47454,1.07589 0.14741,0.37048 0.0398,0.77586 -0.32291,1.21613 z"
         style="font-size:24px;line-height:0%;letter-spacing:6.52703285px;font-family:Cooper Std Black;-inkscape-font-specification:Cooper Std Black"
         id="path4276"
         inkscape:connector-curvature="0" />
      <path
         d="m 339.70118,459.99478 c 0.66029,-1.0562 1.16111,-1.79589 1.50248,-2.21908 0.34132,-0.42319 0.61321,-0.66018 0.81568,-0.71097 0.20241,-0.0508 0.42543,-0.0457 0.66904,0.0153 0.26738,0.0271 0.50401,-0.004 0.70987,-0.0934 0.20581,-0.0893 0.37897,-0.24519 0.51947,-0.46753 0.26444,-0.48324 0.22919,-0.97278 -0.10574,-1.46864 -0.33498,-0.49585 -0.77259,-0.94587 -1.31284,-1.35009 -0.54029,-0.4042 -0.98616,-0.71045 -1.33761,-0.91877 -1.33043,-0.81723 -2.33741,-1.3044 -3.02094,-1.4615 -0.68356,-0.15708 -1.15571,-0.15184 -1.41644,0.0157 -0.26076,0.16758 -0.42215,0.32975 -0.48416,0.48651 -0.15341,0.26086 -0.19787,0.50323 -0.13338,0.72711 0.0645,0.22389 0.16438,0.45052 0.29978,0.67988 0.12355,0.11637 0.15954,0.3584 0.10797,0.7261 -0.0516,0.36771 -0.40663,1.08695 -1.06506,2.15773 -0.16493,0.32916 -0.35052,0.51615 -0.55678,0.56098 -0.20628,0.0448 -0.6287,-0.13603 -1.26726,-0.54259 l -1.03724,-0.64982 c -0.5084,-0.2772 -0.8664,-0.53453 -1.07399,-0.77198 -0.20763,-0.23744 -0.14318,-0.6266 0.19332,-1.16747 0.54051,-0.87501 0.9457,-1.42948 1.21557,-1.6634 0.26985,-0.23391 0.56325,-0.3274 0.8802,-0.28048 0.32162,0.0168 0.60752,-0.008 0.85771,-0.0751 0.25016,-0.0669 0.47327,-0.2516 0.66934,-0.55418 0.22703,-0.41542 0.19744,-0.84479 -0.0888,-1.2881 -0.28626,-0.44329 -0.66242,-0.84853 -1.1285,-1.21572 -0.46611,-0.36717 -0.85541,-0.64428 -1.16792,-0.83134 -0.40976,-0.26736 -0.99135,-0.58522 -1.74479,-0.9536 -0.75346,-0.36835 -1.49814,-0.61007 -2.23405,-0.72517 -0.73592,-0.11506 -1.28245,0.0736 -1.63958,0.56611 -0.11587,0.20473 -0.13983,0.40685 -0.0719,0.60634 0.0679,0.19952 0.15847,0.3884 0.2716,0.56664 0.18819,0.24904 0.29434,0.48756 0.31845,0.71558 0.0241,0.22803 -0.16776,0.70782 -0.57554,1.43935 -0.4078,0.73156 -1.16542,1.97713 -2.27285,3.73672 -0.86818,1.38855 -1.52409,2.36463 -1.96775,2.92825 -0.44367,0.56362 -0.79209,0.88483 -1.04528,0.9636 -0.2532,0.0788 -0.52817,0.0852 -0.82493,0.0192 -0.22855,-0.0317 -0.44873,-0.0174 -0.66052,0.0428 -0.2118,0.0602 -0.38695,0.19479 -0.52545,0.40361 -0.25496,0.47171 -0.20675,0.96344 0.14465,1.47518 0.3514,0.51175 0.8029,0.97922 1.35452,1.40243 0.55162,0.4232 1.00027,0.73785 1.34597,0.94394 0.35116,0.23083 0.85218,0.51045 1.50305,0.83886 0.65087,0.32839 1.29705,0.54372 1.93856,0.64598 0.6415,0.10226 1.12378,-0.0704 1.44685,-0.51797 0.23595,-0.41125 0.28224,-0.72734 0.13886,-0.94828 -0.14339,-0.22095 -0.23581,-0.52325 -0.27726,-0.90689 -0.0415,-0.38365 0.20869,-1.02516 0.75047,-1.92451 0.35495,-0.6129 0.64064,-1.04158 0.85709,-1.28604 0.21643,-0.24446 0.52734,-0.28812 0.93274,-0.131 0.40538,0.15712 1.06898,0.53161 1.99081,1.12346 0.51282,0.28707 0.82567,0.53735 0.93855,0.75084 0.11286,0.2135 -5.3e-4,0.57907 -0.34016,1.09672 -0.84589,1.30775 -1.50018,2.06528 -1.96289,2.27257 -0.46274,0.20729 -0.83175,0.27505 -1.10703,0.20327 -0.27531,-0.0718 -0.55477,0.12761 -0.83836,0.59816 -0.25285,0.46272 -0.21818,0.93198 0.10401,1.40777 0.32217,0.47578 0.74149,0.90701 1.25797,1.29368 0.51645,0.38667 0.93969,0.6777 1.26972,0.8731 1.31727,0.81197 2.31943,1.30906 3.0065,1.49126 0.68703,0.18218 1.16848,0.1978 1.44435,0.0469 0.27584,-0.15095 0.4556,-0.32014 0.5393,-0.50755 0.1495,-0.24619 0.19658,-0.4645 0.14126,-0.65492 -0.0554,-0.19044 -0.15456,-0.40127 -0.2976,-0.6325 -0.17495,-0.31315 -0.24514,-0.58723 -0.21058,-0.82224 0.0345,-0.23502 0.14939,-0.49936 0.3446,-0.79303 z"
         style="font-size:24px;line-height:0%;letter-spacing:6.52703285px;font-family:Cooper Std Black;-inkscape-font-specification:Cooper Std Black"
         id="path4278"
         inkscape:connector-curvature="0" />
      <path
         d="m 346.99779,466.71793 c -0.6506,1.50541 -1.14887,2.53428 -1.49479,3.0866 -0.34593,0.55232 -0.61214,0.8581 -0.79862,0.91734 -0.28218,0.10468 -0.58304,0.17685 -0.90259,0.2165 -0.31956,0.0397 -0.56297,0.22137 -0.73025,0.54513 -0.16976,0.47431 -0.0611,0.91529 0.32589,1.32294 0.38701,0.40764 0.85915,0.75897 1.41641,1.05397 0.55725,0.295 1.00635,0.51069 1.34732,0.64706 1.58604,0.67119 2.77641,1.07096 3.57112,1.1993 0.79468,0.12834 1.33684,0.10474 1.62647,-0.0708 0.28961,-0.17554 0.46982,-0.38354 0.54065,-0.62398 0.12906,-0.32983 0.11728,-0.60912 -0.0353,-0.83788 -0.15265,-0.22876 -0.34013,-0.47901 -0.56245,-0.75075 -0.12128,-0.1246 -0.20344,-0.28175 -0.24646,-0.47144 -0.043,-0.18969 0.0257,-0.57224 0.20635,-1.14766 0.18058,-0.57541 0.54568,-1.50401 1.09529,-2.7858 l 0.93726,-2.1833 c 0.34089,-0.81565 0.706,-1.60785 1.09533,-2.37661 0.38931,-0.76874 0.74557,-1.25133 1.06877,-1.44778 0.38801,-0.13704 0.75846,-0.20654 1.11136,-0.2085 0.35287,-0.002 0.62018,-0.18101 0.80194,-0.53721 0.18551,-0.50202 0.0874,-0.96525 -0.29434,-1.38967 -0.38177,-0.4244 -0.8728,-0.79706 -1.47309,-1.11797 -0.60032,-0.32089 -1.13554,-0.57709 -1.60566,-0.7686 -0.19564,-0.0956 -0.69632,-0.2873 -1.50201,-0.57515 -0.80572,-0.28782 -1.62479,-0.47693 -2.45722,-0.56731 -0.83244,-0.0904 -1.38657,0.11286 -1.66239,0.60965 -0.14258,0.40185 -0.0992,0.75456 0.13014,1.05813 0.22933,0.3036 0.42082,0.66113 0.57447,1.07258 0.0755,0.1701 0.0485,0.5296 -0.081,1.07849 -0.12954,0.54892 -0.48464,1.50539 -1.06529,2.86942 z"
         style="font-size:24px;line-height:0%;letter-spacing:6.52703285px;font-family:Cooper Std Black;-inkscape-font-specification:Cooper Std Black"
         id="path4280"
         inkscape:connector-curvature="0" />
      <path
         d="m 368.02835,481.7217 c 0.38885,0.10767 0.71733,0.21435 0.98544,0.32002 0.26809,0.10566 0.50342,0.21167 0.70602,0.31804 0.19425,0.0932 0.37734,0.18177 0.54927,0.26573 0.1719,0.0839 0.35975,0.15516 0.56355,0.21365 0.58029,0.0959 1.23325,-0.2207 1.95891,-0.94973 0.72562,-0.72904 1.23619,-1.56994 1.5317,-2.52269 0.13356,-0.46627 0.14571,-0.93785 0.0365,-1.41472 -0.10929,-0.47687 -0.41782,-0.79997 -0.92559,-0.96929 -0.45467,-0.082 -0.81094,0.11925 -1.06882,0.6037 -0.25791,0.48444 -0.65211,0.93151 -1.18259,1.34119 -0.5305,0.40969 -1.43197,0.46141 -2.7044,0.15517 -0.79927,-0.21815 -1.26879,-0.56673 -1.40857,-1.04575 -0.13979,-0.47902 -0.0842,-1.13155 0.16667,-1.9576 l 2.01842,-7.36016 c 0.21204,-0.68472 0.49042,-1.08029 0.83513,-1.1867 0.3447,-0.10639 0.67671,-0.1665 0.99604,-0.18033 0.3193,-0.0138 0.5469,-0.22421 0.6828,-0.63121 0.099,-0.26011 0.0911,-0.53386 -0.0236,-0.82127 -0.11476,-0.28737 -0.49866,-0.60157 -1.15171,-0.94259 -0.65307,-0.34099 -1.73757,-0.72196 -3.25352,-1.14293 -0.41337,-0.12333 -1.00134,-0.25354 -1.76392,-0.39064 -0.7626,-0.13707 -1.48793,-0.16301 -2.17598,-0.0778 -0.68807,0.0852 -1.12698,0.39958 -1.31674,0.9431 -0.0868,0.41387 0.0225,0.70775 0.32783,0.88164 0.30531,0.17391 0.60368,0.38324 0.89511,0.62797 0.29142,0.24476 0.3729,0.68033 0.24444,1.30672 -0.1502,0.65355 -0.29619,1.31446 -0.43797,1.98274 -0.1418,0.66829 -0.30571,1.34918 -0.49173,2.04265 -0.18576,0.68113 -0.38392,1.39617 -0.5945,2.14513 -0.21058,0.74897 -0.44253,1.54185 -0.69585,2.37863 -0.27939,0.84231 -0.60073,1.33855 -0.96404,1.48869 -0.36331,0.15015 -0.70372,0.23192 -1.02122,0.24531 -0.31752,0.0134 -0.54726,0.23611 -0.68925,0.66816 -0.10562,0.51749 0.0389,0.88272 0.43365,1.09569 0.39473,0.21298 0.79743,0.36281 1.20812,0.44952 z"
         style="font-size:24px;line-height:0%;letter-spacing:6.52703285px;font-family:Cooper Std Black;-inkscape-font-specification:Cooper Std Black"
         id="path4282"
         inkscape:connector-curvature="0" />
      <path
         d="m 382.80299,477.36592 c -0.21874,1.62534 -0.41984,2.75068 -0.60331,3.37602 -0.18348,0.62535 -0.35696,0.99179 -0.52044,1.0993 -0.24329,0.17716 -0.51338,0.32809 -0.81026,0.45278 -0.29689,0.12469 -0.48202,0.36552 -0.55539,0.72248 -0.035,0.50255 0.18895,0.89765 0.67188,1.18529 0.48293,0.28765 1.03255,0.49802 1.64886,0.63114 0.61631,0.13312 1.10704,0.21916 1.47219,0.25813 1.70853,0.21672 2.96267,0.27928 3.76244,0.18767 0.79976,-0.0916 1.31527,-0.26111 1.54656,-0.5085 0.23127,-0.2474 0.34844,-0.49641 0.35153,-0.74705 0.0349,-0.35246 -0.052,-0.61813 -0.26087,-0.79702 -0.20888,-0.17889 -0.45711,-0.36904 -0.7447,-0.57043 -0.15049,-0.0871 -0.27212,-0.21616 -0.36489,-0.38712 -0.0928,-0.17095 -0.13015,-0.55783 -0.11207,-1.16065 0.0181,-0.60282 0.11811,-1.59559 0.30017,-2.9783 l 0.31115,-2.35551 c 0.10733,-0.87748 0.24433,-1.73895 0.41099,-2.5844 0.16664,-0.84544 0.37894,-1.40646 0.63689,-1.68307 0.33641,-0.23697 0.67422,-0.40417 1.0134,-0.5016 0.33916,-0.0974 0.54801,-0.34216 0.62655,-0.73426 0.0427,-0.5335 -0.17719,-0.95286 -0.65958,-1.25809 -0.48241,-0.30519 -1.056,-0.53099 -1.72076,-0.67739 -0.66477,-0.14638 -1.24936,-0.24811 -1.75378,-0.30519 -0.21421,-0.039 -0.74809,-0.088 -1.60163,-0.14701 -0.85355,-0.0589 -1.69323,-0.0192 -2.51904,0.11913 -0.82582,0.13839 -1.30423,0.48404 -1.43525,1.03696 -0.0285,0.42544 0.10879,0.75324 0.41176,0.98338 0.30296,0.23017 0.58409,0.5225 0.8434,0.87699 0.11875,0.1433 0.19009,0.49668 0.214,1.06014 0.0239,0.56349 -0.059,1.58038 -0.24865,3.05067 z"
         style="font-size:24px;line-height:0%;letter-spacing:6.52703285px;font-family:Cooper Std Black;-inkscape-font-specification:Cooper Std Black"
         id="path4284"
         inkscape:connector-curvature="0" />
      <path
         d="m 407.7092,474.56731 c 0.0132,0.75142 -0.15158,1.3798 -0.49439,1.88514 -0.34283,0.50536 -0.90664,0.77104 -1.69143,0.79704 -0.61208,-0.007 -0.955,-0.11758 -1.02876,-0.33049 -0.0738,-0.21288 -0.0937,-0.45172 -0.0599,-0.71652 l -0.0298,-3.59983 c -0.0225,-0.2418 0.0109,-0.43008 0.10032,-0.56484 0.0894,-0.13473 0.3578,-0.20495 0.80527,-0.21068 0.80263,0.0139 1.40184,0.27991 1.79766,0.79812 0.39579,0.51825 0.59616,1.1656 0.6011,1.94206 z m -8.74315,7.84862 c -0.0164,0.62579 -0.16447,1.03443 -0.44407,1.22593 -0.27961,0.19151 -0.55951,0.34702 -0.83971,0.46653 -0.2802,0.11951 -0.42942,0.38416 -0.44765,0.79395 0.0419,0.51033 0.3643,0.87566 0.96732,1.096 0.60303,0.22034 1.26133,0.35356 1.97491,0.39965 0.71358,0.0461 1.25714,0.0629 1.63068,0.0505 0.39605,0.005 0.94781,-0.0246 1.65529,-0.0902 0.70746,-0.0656 1.35422,-0.2173 1.94027,-0.4552 0.58603,-0.2379 0.89493,-0.61261 0.9267,-1.12415 -0.0247,-0.42128 -0.17909,-0.67571 -0.46322,-0.76328 -0.28415,-0.0876 -0.57303,-0.26445 -0.86664,-0.53061 -0.29363,-0.26616 -0.467,-0.87778 -0.5201,-1.83484 l -0.0115,-1.39194 c -0.003,-0.13147 0.0241,-0.2287 0.0816,-0.29168 0.0575,-0.063 0.1572,-0.0948 0.29921,-0.0955 0.32552,0.002 0.66467,0.0195 1.01745,0.0516 0.35276,0.0321 0.70991,0.0491 1.07145,0.0511 1.72436,-0.0198 3.1974,-0.501 4.41913,-1.44365 1.2217,-0.94264 1.85337,-2.3109 1.89502,-4.10479 -0.078,-1.80338 -0.74925,-3.16385 -2.01386,-4.0814 -1.26464,-0.91752 -2.74443,-1.37127 -4.43937,-1.36124 -0.49838,0.0182 -1.28887,0.0807 -2.3715,0.18765 -1.08264,0.10699 -2.49111,0.17467 -4.22541,0.20302 -0.299,5e-4 -0.59506,-0.005 -0.88816,-0.0166 -0.2931,-0.0115 -0.58915,-0.0171 -0.88815,-0.0166 -0.40058,-0.008 -0.79293,0.0716 -1.17706,0.23776 -0.38413,0.1662 -0.5885,0.4839 -0.61311,0.9531 0.0315,0.47354 0.22691,0.78037 0.5863,0.9205 0.35939,0.14015 0.71892,0.29628 1.07857,0.4684 0.35966,0.17215 0.55562,0.54298 0.5879,1.11249 z"
         style="font-size:24px;line-height:0%;letter-spacing:6.52703285px;font-family:Cooper Std Black;-inkscape-font-specification:Cooper Std Black"
         id="path4286"
         inkscape:connector-curvature="0" />
      <path
         d="m 429.45322,472.16607 c 0.13471,0.73936 0.0738,1.38613 -0.18262,1.94031 -0.25648,0.5542 -0.76982,0.90767 -1.54005,1.0604 -0.60521,0.0918 -0.96144,0.0386 -1.0687,-0.15954 -0.10727,-0.19813 -0.16566,-0.43058 -0.17517,-0.69736 l -0.61234,-3.54749 c -0.0614,-0.23497 -0.0589,-0.42618 0.008,-0.57363 0.0664,-0.14743 0.31989,-0.26019 0.76053,-0.33829 0.79428,-0.11629 1.42866,0.0492 1.90316,0.4965 0.47449,0.44732 0.77704,1.05368 0.90765,1.8191 z m -7.35689,9.16077 c 0.0851,0.62019 0.005,1.04741 -0.2397,1.28166 -0.24491,0.23425 -0.49594,0.43303 -0.75309,0.59633 -0.25715,0.16331 -0.36154,0.44863 -0.31318,0.85596 0.12394,0.49682 0.50128,0.80512 1.13203,0.92491 0.63074,0.11979 1.30193,0.14465 2.01356,0.0746 0.71162,-0.0701 1.25073,-0.14147 1.61733,-0.21422 0.3917,-0.0587 0.93132,-0.17774 1.61884,-0.35701 0.68751,-0.17925 1.30117,-0.43371 1.84096,-0.76337 0.53978,-0.32965 0.78392,-0.74944 0.73245,-1.25936 -0.0926,-0.41173 -0.28615,-0.6378 -0.58071,-0.67821 -0.29458,-0.0404 -0.60828,-0.16817 -0.94112,-0.38328 -0.33285,-0.2151 -0.60296,-0.79057 -0.81034,-1.72641 l -0.23678,-1.37169 c -0.0243,-0.12924 -0.0133,-0.22959 0.0333,-0.30105 0.0465,-0.0714 0.13979,-0.119 0.27981,-0.14267 0.32159,-0.0504 0.65905,-0.0884 1.01237,-0.11386 0.3533,-0.0255 0.7085,-0.0665 1.06559,-0.12305 1.6984,-0.29873 3.07408,-1.01212 4.12705,-2.14016 1.05293,-1.12802 1.45472,-2.58051 1.20535,-4.35747 -0.36895,-1.76696 -1.25167,-3.00077 -2.64817,-3.70145 -1.39653,-0.70063 -2.93026,-0.90878 -4.60121,-0.62443 -0.48885,0.0986 -1.25879,0.28833 -2.30981,0.56918 -1.05103,0.28089 -2.42996,0.57573 -4.13677,0.88454 -0.29498,0.0489 -0.58803,0.0914 -0.87913,0.12739 -0.29111,0.0361 -0.58416,0.0785 -0.87914,0.1274 -0.39652,0.0573 -0.77087,0.19903 -1.12302,0.42521 -0.35215,0.22621 -0.50238,0.57281 -0.45069,1.0398 0.10774,0.4622 0.35028,0.73334 0.72762,0.81341 0.37734,0.0801 0.7574,0.17597 1.14018,0.28758 0.38279,0.11164 0.63621,0.44584 0.76028,1.00261 z"
         style="font-size:24px;line-height:0%;letter-spacing:6.52703285px;font-family:Cooper Std Black;-inkscape-font-specification:Cooper Std Black"
         id="path4288"
         inkscape:connector-curvature="0" />
      <path
         d="m 443.51272,473.18543 c 0.49832,1.56245 0.79848,2.66551 0.90046,3.30918 0.10198,0.64368 0.10213,1.04911 4.3e-4,1.21627 -0.144,0.26428 -0.32344,0.51633 -0.53833,0.75613 -0.21489,0.23982 -0.27907,0.53672 -0.19252,0.89072 0.18357,0.46913 0.55514,0.73027 1.11473,0.78341 0.55958,0.0531 1.14634,0.008 1.7603,-0.13572 0.61394,-0.14362 1.09425,-0.276 1.44091,-0.39715 1.63676,-0.53577 2.7969,-1.01628 3.4804,-1.44153 0.68349,-0.42525 1.07677,-0.79918 1.17984,-1.12179 0.10306,-0.32259 0.10231,-0.5978 -0.002,-0.82562 -0.11935,-0.33347 -0.31169,-0.53631 -0.57704,-0.60854 -0.26536,-0.0722 -0.5711,-0.13774 -0.91723,-0.19659 -0.1733,-0.0143 -0.33847,-0.0788 -0.49551,-0.19358 -0.15705,-0.11475 -0.35648,-0.44837 -0.59829,-1.00087 -0.24182,-0.55248 -0.57651,-1.49246 -1.00409,-2.81996 l -0.72748,-2.26185 c -0.27876,-0.83892 -0.52385,-1.67607 -0.73528,-2.51146 -0.21144,-0.83536 -0.25983,-1.43325 -0.14517,-1.79367 0.20254,-0.3582 0.4362,-0.65395 0.701,-0.88724 0.26478,-0.23326 0.3487,-0.54387 0.25177,-0.93183 -0.18989,-0.50039 -0.56815,-0.78521 -1.13478,-0.85446 -0.56663,-0.0692 -1.18165,-0.0277 -1.84507,0.1247 -0.66343,0.15239 -1.23527,0.31079 -1.71554,0.4752 -0.2103,0.0564 -0.71374,0.24078 -1.51031,0.55299 -0.79657,0.31224 -1.53837,0.70769 -2.22539,1.18635 -0.68701,0.47869 -0.97133,0.99591 -0.85296,1.55167 0.15646,0.39665 0.42086,0.6341 0.79319,0.71234 0.37234,0.0783 0.75158,0.22205 1.13771,0.43136 0.16867,0.0786 0.38446,0.36744 0.64736,0.86639 0.2629,0.49897 0.62344,1.4534 1.08164,2.86329 z"
         style="font-size:24px;line-height:0%;letter-spacing:6.52703285px;font-family:Cooper Std Black;-inkscape-font-specification:Cooper Std Black"
         id="path4290"
         inkscape:connector-curvature="0" />
      <path
         d="m 459.16566,457.78511 c -0.65292,-0.19101 -1.16201,-0.26632 -1.52729,-0.22592 -0.36528,0.0404 -0.85768,0.22535 -1.47721,0.55478 -0.35665,0.16627 -0.8274,0.41725 -1.41225,0.75295 -0.58484,0.33573 -1.07355,0.72906 -1.46614,1.18 -0.39257,0.45097 -0.4788,0.93243 -0.25867,1.44438 0.21675,0.38883 0.48312,0.57558 0.7991,0.56027 0.316,-0.0153 0.67501,0.007 1.07704,0.0683 0.40203,0.0608 0.84048,0.39985 1.31533,1.01703 0.50162,0.71596 0.96036,1.45683 1.37622,2.22261 0.41587,0.7658 0.81564,1.53632 1.19933,2.31157 0.25247,0.49874 0.51311,1.05044 0.78192,1.65512 0.26882,0.60469 0.48654,1.16455 0.65319,1.67957 0.13393,0.47937 0.12551,0.85571 -0.0252,1.12901 -0.15076,0.27331 -0.2962,0.52752 -0.43632,0.76264 -0.14012,0.23513 -0.12725,0.53509 0.0386,0.8999 0.25126,0.4469 0.62428,0.68284 1.11905,0.70781 0.49477,0.025 1.00539,-0.055 1.53189,-0.24003 0.52648,-0.18498 0.96293,-0.36897 1.30936,-0.55196 0.36061,-0.17222 0.77334,-0.41591 1.23819,-0.73108 0.46483,-0.31517 0.83355,-0.68199 1.10616,-1.10048 0.2726,-0.41848 0.30086,-0.8688 0.0848,-1.35096 -0.17744,-0.32284 -0.3897,-0.49037 -0.63678,-0.5026 -0.24709,-0.0122 -0.52103,-0.0333 -0.82182,-0.0633 -0.30079,-0.03 -0.62047,-0.23304 -0.95901,-0.60919 -0.2072,-0.25622 -0.40913,-0.55539 -0.60579,-0.89751 -0.19666,-0.3421 -0.37182,-0.66816 -0.52547,-0.97818 -0.15065,-0.26731 -0.30222,-0.64664 -0.45472,-1.13801 -0.15251,-0.49135 -0.0813,-0.84167 0.2136,-1.05098 0.24058,-0.10138 0.5263,-0.12305 0.85715,-0.065 0.33084,0.0581 0.61407,0.12494 0.84971,0.20064 l 9.612,2.60763 c 0.23291,0.0636 0.46778,0.10113 0.70461,0.11243 0.23681,0.0113 0.46344,-0.0344 0.6799,-0.13706 0.45314,-0.26584 0.64535,-0.69547 0.57663,-1.28888 -0.0687,-0.5934 -0.24425,-1.20027 -0.5265,-1.82063 -0.28228,-0.62033 -0.51712,-1.10384 -0.70453,-1.45052 l -2.79254,-5.55333 c -0.22191,-0.42678 -0.45738,-0.92399 -0.70642,-1.49161 -0.24906,-0.5676 -0.40946,-1.08912 -0.48119,-1.56458 0.007,-0.54 0.16976,-0.95225 0.48955,-1.23676 0.31976,-0.28446 0.36217,-0.70985 0.12722,-1.27618 -0.26577,-0.47109 -0.64924,-0.70144 -1.15041,-0.69104 -0.50119,0.0104 -1.01345,0.12941 -1.53679,0.3569 -0.52335,0.22754 -0.95114,0.43139 -1.28338,0.61154 -0.32629,0.15249 -0.7208,0.36513 -1.18355,0.63794 -0.46276,0.27285 -0.83714,0.59675 -1.12316,0.97171 -0.28602,0.37501 -0.32707,0.79197 -0.12315,1.25088 0.3039,0.50199 0.66754,0.72208 1.09091,0.66027 0.42336,-0.0618 0.82969,0.0563 1.219,0.35409 0.21561,0.22179 0.43005,0.51467 0.64331,0.87864 0.21325,0.364 0.39019,0.68917 0.53083,0.97549 0.11651,0.20614 0.21774,0.47199 0.30369,0.79757 0.0859,0.32562 0.007,0.56774 -0.23581,0.72636 -0.21895,0.0832 -0.5132,0.0902 -0.88275,0.0208 -0.36956,-0.0694 -0.6586,-0.13219 -0.86712,-0.18853 z"
         style="font-size:24px;line-height:0%;letter-spacing:6.52703285px;font-family:Cooper Std Black;-inkscape-font-specification:Cooper Std Black"
         id="path4292"
         inkscape:connector-curvature="0" />
      <path
         d="m 476.42125,447.01973 c -0.46774,0.30238 -0.95231,0.6945 -1.4537,1.17636 -0.50137,0.48188 -0.56909,1.01789 -0.20315,1.60802 0.32528,0.39523 0.62215,0.52342 0.89062,0.38458 0.26849,-0.13881 0.6103,-0.196 1.02541,-0.17157 0.41514,0.0245 1.0053,0.47919 1.7705,1.3642 0.90066,1.06029 1.56502,1.85624 1.99308,2.38786 0.42807,0.53164 0.83353,1.082 1.21637,1.6511 0.38286,0.56911 0.95679,1.44001 1.7218,2.61271 0.42874,0.6926 0.5991,1.21775 0.51107,1.57545 -0.088,0.35769 -0.20958,0.65549 -0.36466,0.8934 -0.15507,0.23791 -0.1188,0.52348 0.10883,0.85672 0.0826,0.16254 0.2656,0.28876 0.54898,0.37867 0.28338,0.0899 0.73543,-0.0847 1.35615,-0.52385 l 7.87247,-5.94308 c 0.32682,-0.24421 0.63215,-0.45717 0.91599,-0.63887 0.28381,-0.18168 0.53891,-0.34168 0.76528,-0.48 0.2253,-0.1231 0.41917,-0.2281 0.58161,-0.31502 0.16241,-0.0869 0.2784,-0.15567 0.34795,-0.20629 0.24771,-0.21967 0.35222,-0.64086 0.31354,-1.26356 -0.0387,-0.62267 -0.1746,-1.28559 -0.40767,-1.98874 -0.23309,-0.70314 -0.51734,-1.28523 -0.85276,-1.74629 -0.21571,-0.28571 -0.49718,-0.49922 -0.84441,-0.64054 -0.34725,-0.1413 -0.68073,-0.10505 -1.00045,0.10874 -0.45074,0.39262 -0.59544,0.86827 -0.43409,1.42695 0.16133,0.5587 0.19178,1.2162 0.0914,1.9725 -0.10045,0.75632 -0.7687,1.62721 -2.00476,2.61267 -0.64608,0.51744 -1.15171,0.86314 -1.51691,1.03711 -0.3652,0.17398 -0.73595,0.10825 -1.11225,-0.19722 -0.37631,-0.30544 -0.90416,-0.91859 -1.58354,-1.83945 -0.26218,-0.31077 -0.45839,-0.63375 -0.58864,-0.96895 -0.13026,-0.33517 -0.01,-0.65675 0.36177,-0.96472 0.62967,-0.43637 1.12671,-0.53873 1.49111,-0.30708 0.36439,0.23166 0.68729,0.49464 0.96869,0.78895 0.28139,0.29432 0.61242,0.31728 0.9931,0.0689 0.35988,-0.30861 0.48377,-0.72921 0.37168,-1.26178 -0.11211,-0.53255 -0.321,-1.06054 -0.62666,-1.58398 -0.30568,-0.5234 -0.56892,-0.92571 -0.78974,-1.20693 -0.19877,-0.27556 -0.49259,-0.62249 -0.88148,-1.04078 -0.3889,-0.41825 -0.80819,-0.74843 -1.25786,-0.99053 -0.44968,-0.24206 -0.86506,-0.23661 -1.24616,0.0164 -0.40265,0.34519 -0.50656,0.71209 -0.31174,1.1007 0.19482,0.38865 0.38431,0.78129 0.56849,1.17794 0.18418,0.39668 0.059,0.77965 -0.37559,1.1489 -0.54599,0.44603 -0.93612,0.65785 -1.17039,0.63548 -0.23427,-0.0224 -0.54197,-0.30879 -0.92309,-0.8593 -0.86193,-1.03137 -1.34167,-1.77806 -1.43923,-2.24006 -0.0975,-0.46198 0.36998,-1.05924 1.40257,-1.79179 1.18331,-0.85765 2.06969,-1.27732 2.65913,-1.25901 0.58944,0.0183 1.06077,0.12584 1.41398,0.32249 0.35321,0.19669 0.76711,0.1337 1.24171,-0.18896 0.35476,-0.296 0.50027,-0.64265 0.43653,-1.03997 -0.0638,-0.39727 -0.22429,-0.76096 -0.48162,-1.09107 -0.36033,-0.48475 -0.90419,-0.95124 -1.63158,-1.39947 -0.72741,-0.44819 -1.38516,-0.49792 -1.97326,-0.1492 -0.0965,0.0979 -0.30528,0.35578 -0.62636,0.77356 -0.32109,0.41783 -1.09493,1.10225 -2.32154,2.05327 z"
         style="font-size:24px;line-height:0%;letter-spacing:6.52703285px;font-family:Cooper Std Black;-inkscape-font-specification:Cooper Std Black"
         id="path4294"
         inkscape:connector-curvature="0" />
      <path
         d="m 499.60002,440.15356 c 1.12339,-0.1903 2.10133,-0.51466 2.93383,-0.97308 0.8325,-0.45841 1.54657,-0.82521 2.14222,-1.1004 0.59565,-0.27518 1.09989,-0.23309 1.51274,0.12627 0.29427,0.34065 0.35209,0.72964 0.17347,1.16698 -0.17863,0.43735 -0.37697,0.76485 -0.59504,0.98249 -1.02015,1.00413 -1.97035,1.52459 -2.85059,1.56137 -0.88024,0.0368 -1.65664,-0.0356 -2.32921,-0.21714 -0.67256,-0.18154 -1.20739,-0.0977 -1.60451,0.25138 -0.23626,0.26798 -0.31626,0.54795 -0.24,0.83993 0.0763,0.29199 0.23771,0.5532 0.48431,0.78362 0.49128,0.4687 1.17321,0.92413 2.04578,1.36631 0.87257,0.44218 1.64865,0.5897 2.32824,0.44256 0.77753,-0.27549 1.61602,-0.74348 2.51548,-1.40398 0.89946,-0.66049 1.6404,-1.2958 2.22284,-1.90593 1.85961,-2.06165 2.78101,-3.96616 2.7642,-5.71353 -0.0168,-1.74735 -0.56757,-3.12275 -1.65222,-4.12621 -0.6463,-0.61475 -1.3295,-1.00791 -2.04959,-1.17948 -0.7201,-0.17153 -1.51188,-0.15456 -2.37532,0.0509 -1.08078,0.28504 -2.02617,0.67921 -2.83617,1.18252 -0.81,0.50334 -1.51533,0.89277 -2.116,1.16828 -0.60067,0.27554 -1.12741,0.2141 -1.58021,-0.18431 -0.29804,-0.30765 -0.40886,-0.63802 -0.33246,-0.99113 0.0764,-0.35308 0.25027,-0.66935 0.52161,-0.94883 0.5884,-0.56955 1.23266,-0.90379 1.93278,-1.00274 0.70013,-0.0989 1.36626,-0.16209 1.99839,-0.18955 0.63213,-0.0274 1.14039,-0.21869 1.52478,-0.57381 0.29609,-0.33593 0.41207,-0.70452 0.34793,-1.10575 -0.0641,-0.40119 -0.24898,-0.74952 -0.5545,-1.04499 -0.79637,-0.67606 -1.67852,-1.04869 -2.64645,-1.11787 -0.96792,-0.0691 -1.62549,0.0534 -1.97271,0.36763 -0.16112,0.18972 -0.2701,0.38554 -0.32694,0.58747 -0.0568,0.20196 -0.13688,0.36735 -0.24011,0.49617 -0.16674,0.13469 -0.56285,0.38862 -1.18834,0.76179 -0.62548,0.37321 -1.22422,0.84016 -1.79622,1.40085 -1.55073,1.74202 -2.31311,3.44309 -2.28717,5.10321 0.026,1.66015 0.51792,2.94789 1.47588,3.86325 0.63681,0.58848 1.35884,0.97855 2.16607,1.1702 0.80726,0.19166 1.63499,0.22684 2.48321,0.10554 z"
         style="font-size:24px;line-height:0%;letter-spacing:6.52703285px;font-family:Cooper Std Black;-inkscape-font-specification:Cooper Std Black"
         id="path4296"
         inkscape:connector-curvature="0" />
    </g>
  </g>
</svg>
