<svg xmlns="http://www.w3.org/2000/svg" xmlns:xlink="http://www.w3.org/1999/xlink" width="305" height="305">
   <path
      d="M39.52 184.381C23.07 122.22 59.733 58.6 121.407 42.28c61.675-16.32 125.006 20.842 141.454 83.003 16.449 62.161-20.214 125.782-81.889 142.102-61.674 16.32-125.005-20.842-141.454-83.003z"
      fill="none" />
   <path
      d="M447.102 315.417c0 52.702-48.846 95.426-109.1 95.426-60.255 0-109.1-42.724-109.1-95.426 0-52.701 48.845-95.425 109.1-95.425 60.254 0 109.1 42.724 109.1 95.425z"
      transform="matrix(1.36437 0 0 1.55989 -308.66 -339.516)" fill="#fff" stroke="green" stroke-width="5"
      stroke-linecap="square" stroke-linejoin="round" />
   <g style="line-height:0%;-inkscape-font-specification:Sans Bold" font-size="33.139" font-weight="700"
      letter-spacing="0" word-spacing="0" font-family="Cooper Std Black">
      <path
         d="M18.147 180.19c-.52.778-.83 1.416-.93 1.914-.099.497-.062 1.223.11 2.176.069.539.2 1.263.396 2.174.195.91.505 1.717.93 2.423.425.705 1.017 1.02 1.777.946.597-.123.951-.395 1.063-.817a7.63 7.63 0 01.536-1.388c.247-.504.871-.939 1.874-1.305 1.142-.36 2.3-.653 3.471-.879a93.338 93.338 0 013.515-.61 49.7 49.7 0 012.484-.334c.9-.1 1.721-.152 2.463-.156.68.025 1.168.194 1.462.507.294.313.565.61.814.893.248.283.645.392 1.19.327.687-.144 1.15-.536 1.388-1.176.238-.64.346-1.346.324-2.116a13.676 13.676 0 00-.176-1.954 13.6 13.6 0 00-.44-1.936c-.218-.743-.543-1.382-.976-1.916-.432-.534-1.008-.76-1.727-.678-.495.098-.802.308-.92.627-.119.32-.26.672-.424 1.055-.164.383-.562.719-1.194 1.007-.42.165-.894.305-1.422.42a24.57 24.57 0 01-1.495.282c-.411.086-.97.127-1.674.121-.704-.005-1.131-.245-1.282-.721-.032-.36.058-.744.271-1.155a8.96 8.96 0 01.615-1.034l7.397-11.553c.18-.28.326-.573.44-.88.112-.307.147-.624.103-.952-.159-.708-.64-1.14-1.442-1.3-.803-.157-1.667-.18-2.594-.07-.927.112-1.655.218-2.185.32l-8.406 1.346c-.649.114-1.395.215-2.24.305-.843.09-1.59.082-2.24-.023-.702-.235-1.172-.622-1.41-1.162-.239-.54-.776-.774-1.613-.702-.725.152-1.185.56-1.38 1.224-.194.663-.252 1.387-.172 2.171.079.784.167 1.432.264 1.945.064.493.177 1.101.34 1.824.164.723.431 1.352.802 1.885.37.534.897.762 1.58.686.782-.189 1.22-.575 1.315-1.158.096-.583.418-1.068.969-1.456.379-.19.85-.35 1.413-.478a20.881 20.881 0 011.494-.29c.317-.066.706-.088 1.166-.065.46.024.744.229.85.615.018.323-.096.713-.34 1.17-.244.457-.446.811-.606 1.062zM14.532 152.015c-.108.761-.139 1.622-.092 2.58.047.96.54 1.516 1.478 1.67.7.02 1.1-.173 1.198-.579.098-.405.346-.813.744-1.223.399-.41 1.4-.613 3.001-.607 1.905.023 3.324.053 4.258.089.934.036 1.867.113 2.799.23.932.117 2.347.31 4.246.576 1.1.181 1.796.48 2.086.896.29.416.489.812.595 1.19.106.377.434.598.983.663.242.061.537-.015.884-.228.348-.214.574-.843.678-1.888l.94-13.587c.042-.561.097-1.072.164-1.533.068-.46.132-.87.193-1.232.075-.346.14-.643.197-.891.056-.248.09-.431.1-.55-.004-.457-.345-.948-1.023-1.472-.678-.524-1.485-.984-2.42-1.378-.936-.395-1.793-.627-2.57-.696a2.666 2.666 0 00-1.421.3c-.458.233-.72.613-.787 1.14 0 .825.361 1.407 1.083 1.745.722.339 1.429.903 2.12 1.694.69.79.989 2.276.895 4.456-.046 1.142-.144 1.982-.293 2.52-.148.538-.55.865-1.203.98-.654.115-1.762.109-3.324-.019a4.677 4.677 0 01-1.53-.265c-.463-.168-.686-.585-.67-1.251.115-1.052.456-1.662 1.023-1.832a7.025 7.025 0 011.686-.293c.557-.027.878-.35.964-.972.005-.655-.319-1.165-.97-1.531a7.226 7.226 0 00-2.198-.784c-.816-.156-1.468-.246-1.957-.271-.463-.043-1.086-.052-1.867-.026-.782.026-1.5.163-2.154.412-.654.249-1.022.686-1.103 1.313-.006.732.28 1.173.856 1.322.576.15 1.152.308 1.728.476.575.168.858.645.848 1.433-.03.973-.162 1.571-.396 1.795-.233.224-.806.284-1.717.182-1.84-.037-3.042-.215-3.607-.532-.565-.317-.761-1.346-.59-3.085.178-2.01.542-3.314 1.09-3.91.55-.598 1.084-.992 1.605-1.181.52-.19.828-.678.921-1.465.014-.637-.214-1.103-.681-1.397a3.212 3.212 0 00-1.56-.488c-.825-.064-1.795.08-2.912.43-1.117.352-1.76.992-1.928 1.92.014.19.093.64.235 1.354.143.713.154 2.14.034 4.28zM43.466 112.16c.748-.031 1.375-.166 1.881-.403.506-.238.891-.735 1.156-1.493.263-.884.15-1.67-.34-2.358-.489-.688-1.117-1.336-1.885-1.944l-12.17-10.21c-.84-.802-1.313-1.486-1.42-2.05-.108-.565-.49-.98-1.145-1.248-.865-.218-1.55.044-2.054.786-.504.742-.862 1.475-1.074 2.2-.169.455-.349 1.039-.54 1.75-.193.71-.255 1.387-.188 2.027.068.64.406 1.084 1.015 1.328.792.178 1.347-.01 1.666-.564.32-.554.781-.775 1.387-.661.204.081.72.403 1.545.966a22.022 22.022 0 012.346 1.84c.737.665 1.076 1.19 1.014 1.577-.2.361-.658.587-1.375.678-.716.092-1.254.142-1.613.15-.456.06-1.103.138-1.94.234-.838.096-1.497.082-1.979-.041-.343-.184-.58-.528-.71-1.033-.13-.504-.429-.87-.896-1.096-.177-.104-.444-.124-.8-.06-.357.065-.798.478-1.324 1.238-.527.761-1.133 2.134-1.82 4.118-.702 2.147-1.046 3.703-1.031 4.668.014.965.162 1.57.443 1.814s.472.357.571.34c.388.123.739.116 1.054-.023.315-.138.603-.342.863-.613.49-.366 1.107-.582 1.852-.65.744-.067 1.22-.07 1.426-.008.13.058.317.185.561.381.244.197.415.345.514.444.288.195.733.56 1.336 1.094.602.535.875 1.024.818 1.468-.206.344-.702.543-1.488.6-.785.056-1.358.072-1.717.048-.289.013-.88.031-1.776.054s-1.61-.035-2.141-.176c-.438-.184-.738-.422-.9-.712-.163-.291-.456-.526-.878-.705-.62-.283-1.219-.13-1.8.458-.58.588-1.248 1.995-2.004 4.22-.19.52-.397 1.236-.62 2.146-.222.911-.3 1.783-.23 2.615.07.832.45 1.39 1.137 1.676.597.194 1.01.203 1.241.027.231-.175.498-.393.8-.653.302-.26.858-.42 1.667-.48l16.746-.75c.817-.003 1.522-.113 2.117-.332.595-.218 1.044-.75 1.347-1.594.316-.98.284-1.744-.094-2.29s-.93-1.103-1.656-1.673l-4.049-3.529c-.856-.727-1.47-1.272-1.842-1.636-.372-.363-.507-.682-.405-.957.117-.237.357-.371.722-.404.365-.033.662-.052.892-.057zM40.649 72.594c-.52.563-1.032 1.251-1.536 2.066-.504.814-.415 1.555.269 2.221.564.42 1.001.49 1.311.214.31-.276.745-.468 1.304-.576.56-.107 1.495.302 2.807 1.228 1.551 1.116 2.7 1.957 3.447 2.524a32.82 32.82 0 012.168 1.8 334.06 334.06 0 013.16 2.916c.802.782 1.204 1.428 1.207 1.936.003.509-.059.949-.185 1.32-.126.37.018.74.432 1.11.164.19.45.297.855.321.407.025.948-.361 1.625-1.16l8.46-10.616c.353-.437.687-.825 1.003-1.164.316-.34.6-.64.855-.902.258-.24.48-.447.667-.618.186-.171.317-.302.392-.394.256-.377.253-.977-.006-1.797-.26-.82-.663-1.662-1.208-2.525-.545-.863-1.117-1.546-1.717-2.05-.382-.31-.827-.5-1.336-.572-.508-.072-.939.09-1.292.483-.466.678-.5 1.364-.098 2.057.402.694.662 1.564.782 2.61.12 1.047-.475 2.439-1.786 4.176-.684.91-1.24 1.544-1.666 1.9-.427.357-.941.394-1.543.112-.602-.281-1.508-.924-2.719-1.927a4.724 4.724 0 01-1.106-1.099c-.285-.404-.233-.876.157-1.413.69-.797 1.316-1.102 1.877-.915.561.187 1.078.43 1.55.729.473.299.92.218 1.342-.244.374-.534.398-1.14.07-1.815a7.325 7.325 0 00-1.362-1.909c-.581-.597-1.065-1.047-1.453-1.349-.356-.301-.862-.667-1.519-1.095a6.66 6.66 0 00-2.002-.901c-.678-.173-1.227-.025-1.648.443-.42.598-.434 1.124-.046 1.579.39.454.772.916 1.15 1.385.377.468.34 1.023-.114 1.665-.575.781-1.022 1.197-1.34 1.246-.32.049-.824-.23-1.514-.839-1.49-1.09-2.377-1.927-2.661-2.513-.285-.585.136-1.543 1.261-2.872 1.284-1.548 2.32-2.41 3.109-2.584.789-.175 1.45-.19 1.985-.046.535.144 1.063-.08 1.585-.673.372-.516.45-1.03.231-1.54a3.255 3.255 0 00-1.005-1.298c-.64-.527-1.519-.968-2.635-1.322-1.115-.354-2.005-.199-2.67.467-.094.164-.285.58-.572 1.247-.286.668-1.084 1.846-2.394 3.533zM67.91 50.937c-.32-.413-.532-.788-.639-1.123-.106-.336.065-.69.512-1.062.75-.556 1.448-.677 2.096-.363.648.314 1.225.81 1.73 1.487.65.8.983 1.553.998 2.259.015.705-.387 1.391-1.206 2.057-.41.313-.731.37-.964.17-.232-.2-.46-.494-.687-.879zm.802 13.582c.83 1.103 1.237 1.963 1.22 2.582-.018.619-.124 1.125-.319 1.52-.194.393-.142.804.156 1.232.526.59 1.207.768 2.043.537.837-.232 1.659-.624 2.466-1.176.808-.552 1.431-1.014 1.871-1.386 2.016-1.632 3.216-2.848 3.6-3.648.383-.8.357-1.415-.079-1.843-.489-.516-.994-.686-1.515-.51-.52.175-1.067.06-1.638-.348-.36-.325-.734-.704-1.123-1.138a25.368 25.368 0 01-1.041-1.234c-.623-.784-.952-1.32-.985-1.608-.033-.288.102-.529.406-.723.71-.53 1.4-.684 2.07-.463.67.22 1.313.591 1.926 1.112 1.69 1.485 3.281 2.489 4.773 3.01 1.492.523 3.237.005 5.236-1.552 1.424-1.179 2.3-2.23 2.628-3.156.329-.924.284-1.64-.134-2.146-.4-.47-.766-.627-1.096-.47-.33.157-.713.281-1.15.374-.437.092-1.017-.194-1.739-.858-1.255-1.243-2.39-2.036-3.408-2.38-1.018-.342-2.095-.315-3.231.083-.208.071-.41.117-.606.137-.196.02-.372-.062-.528-.244-.115-.152-.162-.293-.14-.423.023-.13.07-.272.143-.426.432-.944.567-1.9.403-2.869a5.78 5.78 0 00-1.183-2.645c-1.426-1.643-3.072-2.318-4.94-2.025-1.866.294-3.56 1.064-5.078 2.311-.412.333-.82.676-1.225 1.03-.405.353-.808.703-1.209 1.048-.402.367-.803.727-1.2 1.08-.399.353-.803.694-1.213 1.025-.26.206-.53.405-.81.597-.28.191-.561.377-.84.557-.281.201-.56.398-.836.591-.277.193-.55.396-.82.61-.595.44-1.158 1.039-1.692 1.796-.533.756-.559 1.505-.076 2.246.404.462.796.61 1.177.444.382-.166.87-.197 1.462-.095.593.103 1.408.787 2.445 2.052zM97.916 41.398a4.048 4.048 0 01-.67.285c-.265.089-.464.018-.598-.213-.078-.224-.13-.58-.158-1.07l-.058-1.088c-.042-.264-.072-.731-.09-1.401-.019-.67.138-1.124.47-1.359.347-.115.728-.041 1.142.222.415.263.753.503 1.015.718.267.189.663.494 1.189.915.526.42.866.76 1.02 1.02.066.228-.041.424-.32.588-.28.164-.513.282-.7.353zm-5.037 4.679c.001.61-.01 1.288-.035 2.032a10.125 10.125 0 01-.242 1.992c-.27.694-.654 1.24-1.153 1.635-.5.395-.63.924-.39 1.585.151.53.582.836 1.294.917.711.082 2.103-.345 4.175-1.28.436-.187.984-.469 1.645-.845a6.057 6.057 0 001.647-1.34c.437-.517.538-1.08.303-1.686-.393-.658-.881-.887-1.466-.688-.584.199-1.028.068-1.333-.394-.314-.713-.294-1.255.06-1.625.356-.37.931-.721 1.728-1.053 2.328-1.097 3.892-1.722 4.69-1.876.8-.154 1.313.113 1.54.8.129.488-.05.905-.536 1.252-.486.347-.62.862-.403 1.546.423.889 1.278 1.16 2.566.815 1.287-.345 3-1.032 5.14-2.06a28.705 28.705 0 002.127-1.046c.87-.464 1.602-1.012 2.195-1.644.593-.633.749-1.318.467-2.057-.253-.525-.546-.767-.877-.726-.331.04-.732.075-1.201.102-.47.028-1.04-.24-1.708-.806-.82-.731-2.095-1.822-3.828-3.27a604.6 604.6 0 00-4.984-4.125c-1.589-1.3-2.578-2.094-2.967-2.38a17.939 17.939 0 00-3.561-2.088c-1.32-.59-2.64-.624-3.963-.101-1.306.626-2.084 1.403-2.336 2.333-.252.93-.13 1.922.365 2.978.514 1.223.823 2.559.928 4.006.106 1.448.15 2.815.132 4.1zM147.702 29.093c.05.17.046.632-.012 1.389-.057.756-.404 1.518-1.04 2.286-.635.767-1.795 1.252-3.48 1.454-1.726.131-3.034-.338-3.925-1.409-.892-1.07-1.419-2.599-1.582-4.587l-.534-6.074c-.028-1.283.148-2.087.529-2.414.381-.326.762-.56 1.14-.702.38-.141.552-.576.517-1.304.008-.664-.442-1.168-1.35-1.514-.908-.345-2.663-.408-5.266-.19-2.2.216-3.736.52-4.608.91-.872.392-1.368.776-1.486 1.151-.119.376-.147.649-.086.819.156.675.568 1.172 1.236 1.49.668.319 1.06.959 1.175 1.92l.669 7.626c-.028.154.017.754.134 1.8.118 1.045.527 2.206 1.229 3.484.701 1.279 1.915 2.344 3.64 3.196 1.725.852 4.181 1.161 7.37.928 3.696-.419 6.288-1.359 7.775-2.82 1.487-1.46 2.338-2.946 2.552-4.46.214-1.512.26-2.558.14-3.135l-.783-8.913c-.054-.96.103-1.61.47-1.948.368-.339.74-.613 1.12-.823.378-.21.558-.603.538-1.178-.092-.623-.458-1.043-1.098-1.26a6.294 6.294 0 00-2.1-.313c-.76.008-1.365.039-1.815.09a21.76 21.76 0 00-1.924.232 6.591 6.591 0 00-2.132.693c-.626.338-.93.843-.91 1.515.087.585.363.939.83 1.062.466.123.94.337 1.422.64s.79 1.016.923 2.14zM169.95 17.445c-.568-.744-1.07-1.242-1.508-1.493-.437-.252-1.13-.446-2.082-.582a27.044 27.044 0 00-2.17-.307c-.918-.1-1.776-.058-2.574.126-.798.185-1.281.652-1.45 1.402-.074.61.07 1.035.433 1.275.362.24.741.557 1.137.952.396.394.608 1.129.637 2.204a32.026 32.026 0 01-.268 3.6 95.57 95.57 0 01-.535 3.555c-.123.762-.279 1.59-.468 2.483-.19.893-.4 1.695-.63 2.405-.239.644-.551 1.058-.939 1.24a36.05 36.05 0 01-1.097.497c-.345.149-.572.494-.683 1.036-.082.703.141 1.27.669 1.7.527.43 1.157.755 1.889.977.732.22 1.363.37 1.894.447.538.101 1.191.165 1.96.19.769.026 1.472-.083 2.111-.33.64-.245 1.033-.724 1.183-1.438.064-.505-.036-.864-.3-1.079-.264-.214-.55-.46-.859-.738-.309-.278-.499-.765-.57-1.46a9.623 9.623 0 01.052-1.494c.058-.542.127-1.048.207-1.519.048-.42.186-.967.413-1.64.228-.672.589-1.006 1.084-1 .348.083.682.29 1.001.624.32.334.58.639.779.915l8.539 10.722c.206.26.436.493.69.698.252.205.54.338.862.4.716.071 1.275-.252 1.677-.97.402-.719.697-1.539.885-2.46.187-.923.317-1.653.389-2.193l1.383-8.468a35.19 35.19 0 01.42-2.24c.182-.836.425-1.548.729-2.137.442-.598.955-.925 1.538-.983.583-.058.973-.498 1.17-1.321.085-.742-.154-1.31-.717-1.707-.563-.395-1.226-.679-1.989-.85-.763-.171-1.4-.291-1.913-.36a19.71 19.71 0 00-1.825-.25c-.732-.071-1.407-.014-2.026.172-.619.186-1 .618-1.144 1.296-.069.808.157 1.349.675 1.624.519.275.873.737 1.064 1.386.06.423.062.924.004 1.504-.057.58-.123 1.086-.198 1.52-.037.325-.14.704-.307 1.137-.167.433-.45.64-.846.62-.31-.086-.641-.317-.994-.695a16.513 16.513 0 01-.808-.915zM190.862 34.736c-.779 2.124-1.385 3.58-1.817 4.366-.432.788-.774 1.229-1.025 1.324a5.447 5.447 0 01-1.218.366c-.434.078-.753.347-.958.806-.197.666-.017 1.266.543 1.8.559.533 1.23.982 2.014 1.348.783.365 1.413.63 1.89.792 2.217.808 3.874 1.271 4.97 1.39 1.096.117 1.836.045 2.219-.219.383-.264.614-.564.693-.9.152-.465.116-.849-.11-1.153-.225-.304-.5-.635-.824-.994a1.336 1.336 0 01-.372-.631c-.072-.259-.007-.791.198-1.598.205-.807.636-2.114 1.293-3.922l1.121-3.08c.406-1.15.847-2.27 1.323-3.358.476-1.089.928-1.78 1.355-2.075a4.614 4.614 0 011.504-.37c.483-.03.835-.296 1.057-.8.217-.706.049-1.338-.504-1.895-.553-.557-1.252-1.034-2.097-1.432a23.692 23.692 0 00-2.251-.94c-.275-.118-.974-.345-2.096-.683a14.57 14.57 0 00-3.402-.6c-1.144-.063-1.887.259-2.228.964-.165.565-.08 1.048.256 1.45.336.401.624.88.864 1.436.116.229.105.726-.031 1.493-.137.766-.552 2.111-1.246 4.035zM227.53 44.442c1.108-.751 1.862-1.155 2.262-1.212.4-.057.888.074 1.464.392.373.168.735.223 1.086.166.351-.056.644-.273.878-.65.346-.476.333-1.025-.038-1.645-.371-.62-1.421-1.45-3.15-2.49-.407-.257-.992-.58-1.754-.967a7.54 7.54 0 00-2.27-.753c-.752-.116-1.316.104-1.692.66-.24.55-.193 1.021.145 1.415.337.393.401.836.194 1.329-.294.392-.91.91-1.847 1.554a68.689 68.689 0 01-2.102 1.404c-.371.257-.846.566-1.425.925-.58.36-1.107.416-1.583.168-.277-.232-.395-.592-.356-1.078.04-.487.08-.905.121-1.256.093-1.013.197-2.069.312-3.169.115-1.1.26-1.833.432-2.201.261-.315.651-.46 1.17-.433.52.026.955-.197 1.309-.669.131-.134.209-.39.232-.767.022-.377-.299-.927-.964-1.65-.665-.724-1.963-1.672-3.895-2.844-.52-.327-1.269-.723-2.246-1.19-.977-.466-1.946-.763-2.906-.89-.96-.127-1.674.156-2.143.848-.177.303-.253.595-.227.875.027.28.168.529.424.744.487.368.779.79.874 1.267.095.476.076 1.282-.056 2.416l-1.731 15.907c-.118.85-.12 1.59-.002 2.218.116.628.567 1.184 1.35 1.667.762.413 1.483.482 2.165.208a9.697 9.697 0 001.978-1.087zM241.172 48.184c-.515-.567-1.155-1.137-1.92-1.709-.765-.572-1.504-.54-2.217.093-.46.534-.565.967-.316 1.301.248.334.403.786.465 1.357.062.57-.418 1.479-1.438 2.724a179.243 179.243 0 01-2.77 3.262c-.62.705-1.271 1.384-1.952 2.036a333.73 333.73 0 01-3.135 2.945c-.838.742-1.508 1.095-2.011 1.057-.503-.037-.933-.134-1.29-.29-.356-.157-.733-.042-1.131.344-.2.15-.33.428-.386.835-.057.406.282.982 1.016 1.726l9.818 9.353c.404.389.761.755 1.071 1.1.31.345.584.655.823.932.217.278.403.518.557.72a4.5 4.5 0 00.358.426c.353.286.946.332 1.778.136.832-.196 1.696-.533 2.592-1.012.896-.479 1.617-1 2.163-1.562.337-.36.561-.792.673-1.297.111-.505-.014-.951-.375-1.337-.633-.524-1.308-.612-2.026-.263-.717.348-1.598.54-2.642.577-1.044.037-2.372-.672-3.984-2.129-.846-.76-1.428-1.37-1.746-1.827-.318-.457-.314-.977.013-1.56.326-.582 1.034-1.442 2.122-2.578.36-.429.751-.77 1.174-1.025.423-.254.885-.164 1.385.271.733.757.984 1.41.755 1.96-.23.55-.512 1.05-.845 1.5-.333.451-.289.907.134 1.368.498.42 1.094.491 1.788.216a7.254 7.254 0 001.996-1.217c.637-.536 1.12-.987 1.45-1.353.326-.334.727-.813 1.203-1.439a6.761 6.761 0 001.051-1.94c.225-.668.123-1.232-.306-1.693-.558-.469-1.077-.526-1.557-.172-.48.355-.967.703-1.46 1.045-.494.342-1.04.26-1.638-.247-.726-.641-1.101-1.124-1.124-1.448-.023-.324.293-.809.95-1.454 1.196-1.41 2.094-2.235 2.696-2.474.601-.24 1.514.26 2.739 1.497 1.427 1.415 2.196 2.525 2.305 3.332.11.806.072 1.473-.113 1.999s-.006 1.075.538 1.647c.48.415.982.534 1.504.356a3.23 3.23 0 001.363-.907c.573-.602 1.079-1.45 1.518-2.543.44-1.093.357-2-.248-2.72-.154-.11-.55-.335-1.187-.676-.638-.341-1.738-1.237-3.302-2.689zM260.39 77.274c.433-.29.82-.475 1.16-.556.34-.08.676.119 1.01.597.49.797.556 1.509.196 2.136-.36.627-.896 1.168-1.605 1.623-.84.592-1.61.868-2.31.829-.699-.04-1.345-.497-1.94-1.373-.278-.436-.309-.763-.093-.981.216-.218.523-.426.922-.623zm-13.49-.248c-1.155.75-2.037 1.091-2.647 1.026-.61-.066-1.103-.212-1.478-.438-.374-.226-.784-.206-1.23.061-.624.483-.854 1.154-.69 2.013.165.858.488 1.715.972 2.57.483.855.891 1.518 1.225 1.989 1.457 2.153 2.566 3.453 3.327 3.901.761.448 1.37.47 1.828.065.548-.452.756-.947.622-1.484-.133-.537.024-1.077.471-1.62a15 15 0 011.212-1.04c.459-.358.892-.675 1.3-.952.824-.566 1.38-.854 1.667-.865.287-.011.515.144.683.464.468.754.568 1.46.297 2.117-.27.658-.686 1.274-1.248 1.85-1.6 1.584-2.715 3.106-3.347 4.565-.632 1.46-.256 3.255 1.129 5.385 1.055 1.523 2.027 2.486 2.915 2.888.89.401 1.6.412 2.133.031.496-.366.679-.722.55-1.066a5.267 5.267 0 01-.28-1.185c-.058-.446.27-1.007.982-1.681 1.327-1.165 2.199-2.246 2.617-3.242.418-.997.474-2.082.17-3.255a2.754 2.754 0 01-.089-.62c-.004-.199.09-.37.282-.512.159-.104.302-.14.429-.107.127.033.263.091.41.176.9.508 1.835.717 2.805.628a5.68 5.68 0 002.707-.984c1.735-1.306 2.53-2.91 2.385-4.81-.145-1.9-.776-3.661-1.89-5.285a42.1 42.1 0 00-.923-1.311c-.319-.435-.633-.867-.944-1.297-.331-.433-.656-.864-.974-1.291-.317-.428-.624-.86-.919-1.299-.184-.276-.36-.563-.527-.86a38.11 38.11 0 01-.486-.889c-.177-.297-.35-.593-.52-.886-.168-.293-.348-.584-.539-.872-.39-.631-.937-1.245-1.644-1.84-.707-.595-1.445-.678-2.215-.25-.487.37-.664.753-.53 1.149s.128.889-.02 1.477c-.147.588-.886 1.354-2.218 2.3zM265.376 101.416c-.402 1.52-.555 2.935-.457 4.243.097 1.309.148 2.416.151 3.322.004.906-.335 1.515-1.018 1.828-.591.174-1.109.023-1.552-.452-.443-.476-.738-.913-.885-1.311-.67-1.858-.777-3.35-.322-4.476.455-1.127.986-2.06 1.595-2.801.609-.74.809-1.46.6-2.16-.2-.45-.502-.711-.91-.783a2.212 2.212 0 00-1.25.159c-.864.348-1.82.943-2.867 1.785s-1.672 1.732-1.875 2.67c-.1 1.135.007 2.457.317 3.965.31 1.509.68 2.804 1.109 3.886 1.51 3.518 3.357 5.768 5.543 6.75 2.186.981 4.212 1.078 6.079.292 1.133-.459 2.011-1.091 2.635-1.897.623-.806 1.053-1.81 1.288-3.013.26-1.52.307-2.934.14-4.24-.165-1.307-.249-2.416-.25-3.328-.001-.913.375-1.54 1.128-1.88.553-.197 1.028-.147 1.424.152.396.298.691.698.885 1.2.374 1.065.424 2.066.15 3.002a28.82 28.82 0 01-.902 2.619c-.325.81-.376 1.558-.153 2.244.25.565.643.922 1.18 1.072.535.15 1.074.117 1.616-.097 1.295-.613 2.261-1.507 2.898-2.683s.859-2.072.665-2.688a2.163 2.163 0 00-.546-.748 1.908 1.908 0 01-.481-.586c-.073-.287-.164-.93-.273-1.93-.109-1-.35-2.02-.722-3.06-1.288-2.947-2.972-4.88-5.055-5.8-2.082-.92-3.966-1.041-5.65-.363a6.547 6.547 0 00-2.69 2.049 9.152 9.152 0 00-1.545 3.058zM272.786 122.9c-2.19.502-3.729.786-4.619.851-.89.065-1.443.018-1.66-.142a5.494 5.494 0 01-.968-.83c-.302-.323-.7-.446-1.193-.368-.661.197-1.06.678-1.198 1.441a7.579 7.579 0 00-.02 2.438c.125.862.25 1.538.375 2.03.54 2.314 1.061 3.966 1.562 4.956.5.99.965 1.576 1.393 1.755.428.18.804.211 1.127.094.468-.125.768-.366.897-.723.13-.356.254-.77.375-1.239.04-.236.147-.456.321-.659.175-.202.654-.438 1.435-.705.782-.268 2.104-.619 3.964-1.051l3.17-.736a48.774 48.774 0 013.513-.717c1.164-.193 1.985-.19 2.463.01.466.32.842.677 1.13 1.068.287.392.7.544 1.241.456.705-.203 1.138-.69 1.298-1.461.16-.772.175-1.623.044-2.553-.13-.93-.28-1.736-.449-2.416-.052-.296-.245-1.01-.578-2.143a14.873 14.873 0 00-1.36-3.2c-.574-1.002-1.246-1.454-2.018-1.356-.56.169-.914.505-1.064 1.008a5.836 5.836 0 01-.72 1.515c-.128.222-.547.485-1.258.789-.711.303-2.055.687-4.032 1.152zM289.558 142.97a17.412 17.412 0 01.057-2.858l.118-.771c.03-.199.043-.354.037-.467-.154-.997-.935-1.9-2.341-2.707-1.406-.808-2.855-1.195-4.346-1.164a2.647 2.647 0 00-1.591.642c-.446.385-.661.904-.647 1.555.101.873.479 1.562 1.133 2.067.654.505 1.304.944 1.95 1.316.647.373 1.008.797 1.085 1.273.088.25-.035.503-.37.762-.334.259-1.328.417-2.979.474l-7.265.183c-.461.014-1.06.005-1.796-.026-.735-.031-1.306-.117-1.71-.255a2.437 2.437 0 01-1.062-1.545c-.15-.66-.617-1.002-1.4-1.026-.82.117-1.374.708-1.658 1.775-.285 1.066-.424 2.217-.416 3.454.007 1.236.038 2.168.092 2.795.22 2.988.62 4.879 1.197 5.674.577.795 1.136 1.124 1.677.988.702-.08 1.11-.37 1.228-.868.116-.497.322-1 .618-1.508.295-.509 1.061-.82 2.299-.934l10.07-.622c.197-.044.57-.036 1.12.027.55.062.878.397.983 1.006-.015.536-.324.985-.925 1.347-.602.36-1.2.788-1.793 1.282s-.886 1.207-.877 2.14c.062.844.35 1.464.862 1.86.512.397 1.184.57 2.015.52 1.797-.196 3.22-.786 4.271-1.77 1.05-.984 1.569-1.842 1.556-2.574a3.607 3.607 0 00-.11-.736 8.3 8.3 0 00-.202-.606 10.329 10.329 0 01-.209-.933c-.072-.39-.131-.934-.177-1.633zM282.583 186.35c.455.653.694 1.294.716 1.924.022.63.077 1.172.165 1.626.087.454.456.743 1.107.869.697.155 1.251-.114 1.66-.808.41-.693.77-2.043 1.082-4.049.085-.451.16-1.075.228-1.87a6.944 6.944 0 00-.152-2.23c-.168-.692-.562-1.108-1.182-1.25-.58-.054-1.014.038-1.3.275-.287.237-.64.342-1.058.314-.423-.11-.884-.456-1.385-1.04-.5-.583-.742-1.112-.724-1.586.142-.435.586-.831 1.331-1.189.745-.358 1.335-.52 1.768-.488.316.09.58.29.79.599.21.308.515.514.912.618.242.084.532.05.868-.1.336-.15.694-.684 1.072-1.602.378-.92.751-2.49 1.12-4.714.385-2.493.533-4.283.444-5.37-.09-1.088-.289-1.759-.597-2.013-.309-.254-.598-.377-.868-.37-.71-.06-1.232.288-1.565 1.041-.333.754-.984 1.491-1.953 2.212l-4.842 3.004c-.777.449-1.443.733-2 .853-.558.12-1.277.102-2.156-.054-1.554-.254-2.744-.496-3.57-.724-.826-.229-1.403-.454-1.731-.677-.516-.454-.792-.994-.826-1.62-.035-.627-.44-1.037-1.214-1.23-.464-.177-1.029.15-1.693.982-.663.832-1.266 2.798-1.807 5.9-.108.585-.212 1.413-.309 2.481-.097 1.07-.05 2.07.14 3.003.19.934.664 1.49 1.42 1.668.712.052 1.213-.183 1.502-.703.288-.521.662-.894 1.12-1.119.31-.1.849-.129 1.615-.085.766.045 1.885.187 3.356.426 1.096.152 1.982.375 2.66.669.678.293 1.385.856 2.122 1.688z"
         style="line-height:0%;-inkscape-font-specification:Cooper Std Black" />
   </g>
   <path
      d="M43.695 213.486c0 2.646-2.122 4.792-4.74 4.792-2.618 0-4.74-2.146-4.74-4.792 0-2.647 2.122-4.793 4.74-4.793 2.618 0 4.74 2.146 4.74 4.793zM271.64 207.143c0 2.647-2.122 4.793-4.74 4.793-2.617 0-4.74-2.146-4.74-4.793 0-2.647 2.123-4.792 4.74-4.792 2.618 0 4.74 2.145 4.74 4.792z" />
   <path
      d="M54.373 253.565c57.34 52.303 147.319 49.116 200.976-7.119 53.656-56.234 50.67-144.222-6.668-196.526C191.34-2.383 101.36.804 47.705 57.04-5.952 113.274-2.966 201.26 54.373 253.565z"
      fill="none" />
   <g transform="matrix(5.02401 0 0 4.88167 153.172 145.095)" fill="#fcd116">
      <circle r="9" />
      <g id="prefix__d">
         <g id="prefix__c">
            <g id="prefix__b">
               <path d="M-1 0l.062.062L0 0l-.938-.062z" transform="scale(19)" />
               <path id="prefix__a" d="M-.884.116l.05.05L0 0z" transform="scale(19.2381)" />
               <use height="1052.362" width="744.094" xlink:href="#prefix__a" transform="scale(1 -1)" />
            </g>
            <use height="1052.362" width="744.094" xlink:href="#prefix__b" transform="rotate(45)" />
         </g>
         <use height="1052.362" width="744.094" xlink:href="#prefix__c" transform="rotate(90)" />
      </g>
      <use height="1052.362" width="744.094" xlink:href="#prefix__d" transform="scale(-1)" />
   </g>
   <path fill="#fff" d="M53.74 145.283h198.356v105.235H53.74z" />
   <g style="line-height:125%;-inkscape-font-specification:Sans Bold" font-size="27.928" font-weight="700"
      letter-spacing="2.363" word-spacing="0" font-family="Cooper Std Black">
      <path
         d="M120.86 232.868c.003 1.685-.112 2.821-.344 3.408-.232.587-.594.86-1.085.821a3.55 3.55 0 01-.676-.09 3.55 3.55 0 00-.676-.09c-.31.006-.58.115-.81.33-.229.215-.349.505-.36.87.072.68.632 1.178 1.678 1.496 1.046.318 2.143.52 3.29.609 1.148.088 1.91.126 2.286.115.748-.002 1.63-.05 2.645-.146 1.015-.096 1.884-.227 2.607-.394.394-.09.749-.24 1.062-.45.314-.21.48-.57.498-1.08-.034-.654-.294-1.005-.78-1.053a15.62 15.62 0 01-1.535-.233c-.538-.108-.902-.58-1.091-1.414-.101-.682-.166-1.53-.195-2.542a79.218 79.218 0 01-.023-4.162l.036-2.025c.04-.9.216-1.487.528-1.76a3.4 3.4 0 01.928-.6c.306-.127.47-.42.494-.88-.04-.62-.299-1.007-.777-1.159a3.849 3.849 0 00-1.381-.191c-1.332.007-2.74.176-4.225.504-1.485.329-2.756.773-3.814 1.331-1.058.56-1.61 1.187-1.66 1.885.01.33.115.577.316.742.2.165.443.248.725.248.155-.002.312-.013.471-.03.159-.018.322-.028.49-.03.615-.006 1.004.14 1.167.439.163.298.234.781.212 1.45zM147.289 238.777a21.334 21.334 0 002.174-4.35 14.6 14.6 0 00.868-4.89c-.084-2.521-.905-4.37-2.464-5.545-1.559-1.176-3.355-1.757-5.388-1.744a9.081 9.081 0 00-3.625.745 6.903 6.903 0 00-2.89 2.3c-.76 1.032-1.154 2.347-1.18 3.945-.007 1.796.44 3.423 1.341 4.882.901 1.459 2.291 2.231 4.17 2.317.208-.003.416-.018.624-.045a5.83 5.83 0 01.624-.045c.16 0 .29.046.39.14.1.092.153.236.156.43-.03.65-.307 1.391-.829 2.224-.521.833-1.103 1.462-1.745 1.886a1.543 1.543 0 00-.364.308.729.729 0 00-.208.442c.028.3.266.61.715.931.448.321.936.594 1.465.818.53.224.929.341 1.2.351.48-.04 1.056-.39 1.727-1.049.67-.659 1.307-1.386 1.911-2.182.604-.796 1.047-1.418 1.328-1.869zm-2.782-7.98c0 .438-.104.823-.309 1.156-.205.332-.51.507-.913.525-.765-.068-1.334-.525-1.706-1.373-.372-.847-.558-1.68-.556-2.497.002-.475.115-.913.341-1.313.226-.4.554-.612.985-.637.75.094 1.298.626 1.644 1.597.347.971.518 1.819.514 2.543zM159.235 222.458c-.823-.01-1.412-.083-1.765-.218s-.623-.27-.812-.404c-.188-.135-.447-.208-.777-.218-.632.033-1.174.522-1.628 1.466-.453.944-.69 2.146-.712 3.604a5.63 5.63 0 00.39 2.205c.277.7.797 1.076 1.56 1.125.636-.023.989-.184 1.059-.483.07-.298.309-.597.717-.895.408-.299 1.437-.46 3.086-.482.47-.032 1.078-.013 1.827.056.748.07 1.162.38 1.241.934-.016.291-.107.638-.273 1.042-.165.404-.308.736-.429.998l-4.68 10.32a4.188 4.188 0 00-.159.337c-.061.142-.095.27-.1.382-.009.28.313.62.965 1.02.651.4 1.681.62 3.09.66.607.007.992-.066 1.154-.217.162-.152.28-.419.354-.803l5.226-18.24c.054-.178.102-.353.143-.524a2.36 2.36 0 00.065-.525c-.024-.533-.203-.862-.54-.986a2.54 2.54 0 00-1.046-.154zM184.546 227.858c.945-.084 1.602-.591 1.97-1.523.366-.93.542-1.783.526-2.557.009-.606-.075-.984-.25-1.133-.177-.148-.5-.21-.972-.187h-8.866c-.607-.087-1.07.034-1.391.364-.321.329-.759 1.388-1.313 3.176-.177.542-.401 1.277-.671 2.205-.27.928-.514 1.854-.73 2.78-.215.924-.329 1.652-.341 2.185.065.618.415 1.009 1.05 1.173.634.165 1.16.263 1.576.297.737.12 1.531.404 2.382.854.85.45 1.313 1.155 1.388 2.115-.037.755-.321 1.286-.852 1.594a3.16 3.16 0 01-1.67.446 7.56 7.56 0 01-1.898-.3c-.584-.175-.93-.275-1.04-.3-.27.045-.46.278-.569.698-.11.42-.163.757-.16 1.012-.051.574.26 1.114.937 1.62.676.506 2.028.776 4.056.81 2.84-.06 5.116-.787 6.828-2.178 1.712-1.392 2.59-3.086 2.636-5.082.084-1.116-.422-2.326-1.518-3.63-1.096-1.303-3.285-2.213-6.568-2.73a3.99 3.99 0 01-.868-.13c-.284-.076-.437-.292-.458-.65.018-.458.164-.733.438-.824.275-.091.57-.127.888-.105z"
         style="-inkscape-font-specification:Cooper Std Black" />
   </g>
   <path
      d="M507.746 360.009c0 50.403-39.929 91.263-89.183 91.263-49.254 0-89.182-40.86-89.182-91.263 0-50.404 39.928-91.264 89.182-91.264 49.254 0 89.183 40.86 89.183 91.264z"
      transform="matrix(1.21126 0 0 1.19263 -354.726 -277.874)" fill="none" stroke="red" stroke-width="3.5" />
   <path d="M105.61 165.834c16.026-.958 36.284-13.647 46.5 0" fill="none" stroke="#500" stroke-width="2.939"
      stroke-linecap="square" stroke-linejoin="bevel" />
   <path d="M200.217 165.745c-16.22-.959-36.725-13.648-47.066 0" fill="none" stroke="#500" stroke-width="2.957"
      stroke-linecap="square" />
   <path d="M105.363 165.15L85.02 205.993M200.38 165.1l21.655 41.684" stroke="#500" stroke-width="3" fill="none" />
   <path d="M152.918 164.583l-.21 44.774" fill="#500" stroke="#500" stroke-width="2" />
   <path d="M86.298 205.348l66.399.41M153.333 205.71l67.45.567M86.805 205.167c22.035-1.262 41.918-18.356 65.359.41"
      fill="#500" stroke="#500" stroke-width="2.5" />
   <path d="M220.523 206.038c-23.449-1.433-43.42-20.586-68.364.726" fill="#500" stroke="#500" stroke-width="2.748" />
   <path fill="none" stroke="#500" stroke-width="2.5" stroke-linecap="square" stroke-linejoin="round"
      d="M149.66 207.045h6.2v1.05h-6.2z" />
   <g style="line-height:0%;-inkscape-font-specification:Sans Bold" font-size="24" font-weight="700"
      letter-spacing="6.527" word-spacing="0" font-family="Cooper Std Black">
      <path
         d="M64.87 245.055c-.495.56-1.038.91-1.628 1.049-.59.139-1.179-.049-1.768-.562-.441-.42-.617-.734-.527-.94a1.56 1.56 0 01.438-.568l2.4-2.665c.147-.193.298-.308.454-.347.155-.038.398.093.728.392.576.555.833 1.157.773 1.806-.06.65-.35 1.26-.87 1.835zm-11.65-.167c-.433.449-.816.649-1.148.6a4.798 4.798 0 01-.926-.227c-.285-.103-.571-.01-.86.28-.313.402-.324.89-.033 1.46a7.052 7.052 0 001.17 1.634c.489.518.873.9 1.154 1.144.285.272.707.625 1.266 1.056.56.432 1.133.76 1.72.982.587.223 1.065.158 1.432-.197.265-.326.324-.618.176-.875-.148-.257-.24-.583-.274-.977-.035-.395.25-.962.855-1.701l.929-1.03c.086-.1.17-.152.255-.16.084-.006.179.038.282.133.236.223.472.466.707.729.235.262.484.517.746.764 1.27 1.155 2.667 1.801 4.191 1.938 1.524.136 2.905-.44 4.143-1.73 1.156-1.378 1.583-2.833 1.279-4.365-.304-1.532-1.077-2.869-2.319-4.012a42.627 42.627 0 00-1.854-1.47c-.86-.657-1.932-1.563-3.215-2.718-.218-.203-.43-.408-.635-.615a21.623 21.623 0 00-.636-.615 2.773 2.773 0 00-1.018-.624c-.392-.139-.754-.044-1.088.284-.296.37-.36.727-.192 1.074.167.347.324.706.47 1.076.147.37.04.776-.32 1.216zM87.198 262.631c.655-1.056 1.151-1.795 1.49-2.219.339-.423.608-.66.809-.71.2-.051.422-.046.663.015.266.027.5-.004.704-.094a1.16 1.16 0 00.516-.467c.262-.484.227-.973-.105-1.469a5.615 5.615 0 00-1.302-1.35c-.536-.404-.978-.71-1.327-.919-1.32-.817-2.318-1.304-2.996-1.461-.678-.157-1.146-.152-1.404.015-.259.168-.42.33-.48.487-.153.26-.197.503-.133.727.064.224.163.45.297.68.123.116.159.358.108.726-.052.368-.404 1.087-1.057 2.158-.163.329-.347.516-.552.56-.205.046-.623-.135-1.257-.542l-1.028-.65c-.505-.277-.86-.534-1.065-.772-.206-.237-.142-.626.191-1.167.536-.875.938-1.43 1.206-1.664.267-.233.558-.327.873-.28.319.017.602-.008.85-.075s.47-.252.664-.554c.225-.416.196-.845-.088-1.288a5.01 5.01 0 00-1.12-1.216 11.625 11.625 0 00-1.157-.831c-.407-.268-.984-.586-1.73-.954a7.737 7.737 0 00-2.216-.725c-.73-.115-1.272.073-1.626.566a.722.722 0 00-.072.606c.068.2.157.389.27.567.186.249.292.487.315.715.024.228-.166.708-.57 1.44-.405.731-1.156 1.977-2.254 3.737-.861 1.388-1.512 2.364-1.952 2.928-.44.563-.785.885-1.036.963a1.557 1.557 0 01-.819.02 1.565 1.565 0 00-.655.042.923.923 0 00-.52.404c-.254.472-.206.963.143 1.475.348.512.796.98 1.343 1.403.547.423.992.737 1.335.944.348.23.845.51 1.49.838a6.52 6.52 0 001.923.646c.636.103 1.115-.07 1.435-.518.234-.41.28-.727.138-.948-.143-.22-.234-.523-.275-.907-.041-.383.207-1.025.744-1.924.352-.613.635-1.042.85-1.286.215-.245.523-.288.925-.131.402.157 1.06.531 1.974 1.123.509.287.82.537.931.751.112.213 0 .579-.337 1.097-.84 1.307-1.488 2.065-1.947 2.272-.459.208-.825.275-1.098.204-.273-.072-.55.127-.831.598-.251.462-.217.932.103 1.407.32.476.735.907 1.248 1.294.512.387.931.678 1.259.873 1.306.812 2.3 1.31 2.981 1.492.682.182 1.16.197 1.433.046.273-.15.452-.32.535-.507.148-.246.195-.465.14-.655a2.635 2.635 0 00-.295-.633c-.174-.313-.244-.587-.21-.822.035-.235.149-.5.342-.793zM94.434 269.355c-.645 1.505-1.14 2.534-1.482 3.086-.343.552-.607.858-.792.917-.28.105-.578.177-.895.217-.317.04-.559.221-.725.545-.168.474-.06.915.324 1.323.383.408.852.759 1.404 1.054.553.295.998.51 1.337.647 1.572.671 2.753 1.071 3.541 1.2.788.128 1.326.104 1.613-.071.287-.176.466-.384.536-.624.128-.33.117-.61-.035-.838a9.745 9.745 0 00-.557-.751.968.968 0 01-.245-.471c-.043-.19.026-.573.205-1.148.179-.576.54-1.504 1.086-2.786l.93-2.183c.338-.816.7-1.608 1.086-2.377.386-.769.74-1.251 1.06-1.448a3.34 3.34 0 011.102-.208c.35-.002.615-.181.795-.537.184-.502.087-.966-.292-1.39-.378-.424-.865-.797-1.46-1.118a17.176 17.176 0 00-1.593-.769c-.194-.095-.69-.287-1.49-.575a10.56 10.56 0 00-2.436-.567c-.826-.09-1.376.113-1.65.61-.14.401-.098.754.13 1.058.227.303.417.66.57 1.072.075.17.048.53-.08 1.079-.13.549-.481 1.505-1.057 2.87zM115.291 284.358c.386.108.711.215.977.32.266.106.5.212.7.318l.545.266c.17.084.357.155.56.214.575.096 1.222-.221 1.942-.95a6.101 6.101 0 001.519-2.523c.132-.466.144-.938.036-1.414-.108-.477-.414-.8-.918-.97-.45-.082-.804.12-1.06.604s-.647.932-1.173 1.341c-.526.41-1.42.462-2.682.155-.792-.218-1.258-.566-1.397-1.045-.138-.48-.083-1.132.166-1.958l2.001-7.36c.21-.685.487-1.08.829-1.187.341-.106.67-.166.987-.18.317-.014.543-.224.678-.631.098-.26.09-.534-.024-.822-.114-.287-.494-.601-1.142-.942-.648-.341-1.723-.722-3.227-1.143-.41-.123-.993-.254-1.749-.39a7.118 7.118 0 00-2.158-.079c-.682.086-1.118.4-1.306.943-.086.414.022.708.325.882.303.174.599.383.888.628.289.245.37.68.242 1.307-.149.653-.293 1.314-.434 1.983a39.94 39.94 0 01-.488 2.042c-.184.681-.38 1.396-.59 2.145-.208.75-.438 1.542-.69 2.379-.276.842-.595 1.339-.955 1.489-.36.15-.698.232-1.013.245-.315.013-.543.236-.684.668-.104.518.039.883.43 1.096.392.213.791.363 1.198.45zM129.943 280.003c-.216 1.625-.416 2.75-.598 3.376-.182.625-.354.991-.516 1.099-.241.177-.51.328-.804.453-.294.124-.478.365-.55.722-.035.503.187.898.666 1.185a5.371 5.371 0 001.635.632c.611.133 1.098.219 1.46.258 1.695.216 2.938.279 3.732.187.793-.091 1.304-.26 1.533-.508.23-.248.346-.497.349-.747.035-.353-.052-.618-.259-.797a9.675 9.675 0 00-.738-.57.962.962 0 01-.362-.388c-.092-.17-.13-.558-.111-1.16.018-.603.117-1.596.297-2.979l.309-2.355c.106-.878.242-1.74.408-2.585.165-.845.375-1.406.631-1.683a3.354 3.354 0 011.005-.501c.337-.098.544-.342.622-.735.042-.533-.176-.952-.655-1.258-.478-.305-1.047-.53-1.706-.677a17.108 17.108 0 00-1.74-.305c-.212-.04-.741-.088-1.588-.147a10.55 10.55 0 00-2.498.119c-.819.138-1.293.484-1.423 1.037-.029.425.108.753.408.983.3.23.58.523.836.877.118.144.189.497.213 1.06.023.564-.059 1.58-.247 3.051zM154.644 277.204c.013.751-.15 1.38-.49 1.885-.34.505-.9.771-1.678.797-.607-.007-.947-.117-1.02-.33a1.575 1.575 0 01-.06-.717l-.03-3.6c-.021-.242.012-.43.1-.565.089-.134.355-.205.799-.21.796.014 1.39.28 1.783.798.392.518.591 1.165.596 1.942zm-8.671 7.849c-.016.625-.163 1.034-.44 1.225a4.822 4.822 0 01-.833.467c-.278.12-.426.384-.444.794.041.51.361.876.96 1.096.597.22 1.25.354 1.958.4a17.76 17.76 0 001.617.05c.393.005.94-.024 1.642-.09a6.701 6.701 0 001.924-.455c.581-.238.887-.613.919-1.124-.025-.422-.178-.676-.46-.764-.281-.087-.568-.264-.859-.53-.291-.266-.463-.878-.516-1.835l-.011-1.392c-.003-.132.024-.229.08-.292.058-.063.157-.095.297-.095.323.002.66.02 1.01.051.35.032.703.05 1.062.051 1.71-.02 3.171-.5 4.383-1.443 1.211-.943 1.838-2.311 1.879-4.105-.077-1.803-.743-3.164-1.997-4.081-1.254-.918-2.722-1.372-4.403-1.362-.494.019-1.278.081-2.352.188-1.073.107-2.47.175-4.19.203-.297 0-.59-.005-.881-.017-.29-.011-.584-.017-.88-.016a2.752 2.752 0 00-1.168.238c-.381.166-.584.483-.608.953.031.473.225.78.581.92.357.14.713.296 1.07.469.357.172.55.543.583 1.112zM176.208 274.803c.134.739.073 1.386-.181 1.94s-.763.908-1.527 1.06c-.6.092-.954.039-1.06-.16a1.573 1.573 0 01-.174-.697l-.607-3.547c-.061-.235-.059-.426.008-.574.066-.147.317-.26.754-.338.788-.116 1.417.05 1.887.497.471.447.771 1.053.9 1.819zm-7.296 9.16c.084.62.005 1.048-.238 1.282a4.84 4.84 0 01-.747.596c-.255.164-.358.45-.31.856.123.497.497.806 1.123.925.625.12 1.29.145 1.996.075.706-.07 1.24-.142 1.604-.214.389-.059.924-.178 1.606-.357a6.715 6.715 0 001.826-.764c.535-.33.777-.75.726-1.26-.092-.41-.284-.637-.576-.677-.292-.04-.603-.168-.933-.384-.33-.215-.598-.79-.804-1.726l-.235-1.372c-.024-.129-.013-.23.033-.3.046-.072.139-.12.278-.143.319-.05.653-.089 1.004-.114.35-.026.702-.067 1.057-.123 1.684-.299 3.048-1.012 4.093-2.14 1.044-1.128 1.442-2.58 1.195-4.358-.366-1.767-1.241-3-2.626-3.701-1.385-.701-2.906-.91-4.564-.625-.484.099-1.248.289-2.29.57-1.043.28-2.41.575-4.103.884-.292.049-.583.091-.872.127-.288.036-.579.079-.872.128a2.763 2.763 0 00-1.113.425c-.35.226-.499.573-.447 1.04.107.462.347.733.721.813.375.08.751.176 1.131.288.38.111.631.446.754 1.002zM190.151 275.822c.495 1.562.792 2.666.893 3.31.102.643.102 1.048 0 1.215-.142.265-.32.517-.533.757-.213.24-.277.536-.191.89.182.47.55.73 1.106.784a5.353 5.353 0 001.745-.136 14.614 14.614 0 001.43-.397c1.623-.536 2.773-1.016 3.45-1.442.679-.425 1.069-.799 1.171-1.121.102-.323.101-.598-.002-.826-.118-.334-.31-.536-.572-.609a9.603 9.603 0 00-.91-.196.953.953 0 01-.491-.194c-.156-.115-.354-.448-.594-1-.24-.553-.571-1.493-.995-2.82l-.722-2.262a36.116 36.116 0 01-.73-2.512c-.209-.835-.257-1.433-.143-1.794.2-.358.433-.654.695-.887.263-.233.346-.544.25-.932-.189-.5-.564-.785-1.126-.854-.562-.07-1.171-.028-1.83.125a17.13 17.13 0 00-1.7.475c-.21.056-.709.24-1.499.553-.79.312-1.525.707-2.207 1.186-.68.479-.963.996-.845 1.552.155.396.417.634.786.712.37.078.746.222 1.128.431.168.08.382.368.642.867.261.499.619 1.453 1.073 2.863zM205.675 260.422c-.648-.191-1.152-.267-1.515-.226-.362.04-.85.225-1.465.555-.353.166-.82.417-1.4.753a5.61 5.61 0 00-1.454 1.18c-.39.45-.475.932-.257 1.444.215.389.48.575.793.56a5.37 5.37 0 011.068.068c.398.061.833.4 1.304 1.018.498.715.953 1.456 1.365 2.222.413.766.809 1.536 1.19 2.312.25.498.508 1.05.775 1.655.267.604.482 1.164.648 1.68.133.479.124.855-.025 1.128-.15.274-.294.528-.433.763s-.126.535.038.9c.25.447.62.683 1.11.708.49.025.997-.055 1.52-.24a9.694 9.694 0 001.298-.552 9.676 9.676 0 001.228-.731 3.906 3.906 0 001.097-1.1c.27-.42.298-.87.084-1.352-.176-.323-.387-.49-.632-.502a16.314 16.314 0 01-.815-.064c-.298-.03-.615-.233-.95-.609a6.882 6.882 0 01-.601-.897 18.134 18.134 0 01-.522-.979c-.149-.267-.3-.646-.45-1.138-.152-.49-.081-.841.211-1.05.239-.102.522-.124.85-.066.328.059.61.125.843.201l9.533 2.608c.23.063.463.1.698.112.235.011.46-.034.675-.137.449-.266.64-.695.572-1.289a6.126 6.126 0 00-.523-1.82c-.28-.62-.512-1.104-.698-1.45l-2.77-5.554a25.39 25.39 0 01-.7-1.492c-.247-.567-.406-1.089-.478-1.564.007-.54.169-.953.486-1.237.317-.285.36-.71.126-1.276-.263-.471-.644-.702-1.14-.691-.498.01-1.006.129-1.525.356-.519.228-.943.432-1.273.612-.323.152-.715.365-1.173.638-.46.273-.83.597-1.114.972-.284.375-.325.792-.122 1.25.3.503.662.723 1.081.66.42-.061.823.057 1.21.355.213.222.426.515.637.879.212.364.387.689.527.975.115.206.216.472.301.798.085.325.007.567-.234.726-.217.083-.509.09-.875.02-.367-.069-.653-.131-.86-.188zM222.788 249.656a9.775 9.775 0 00-1.442 1.177c-.497.482-.564 1.018-.201 1.608.322.395.617.523.883.384s.605-.196 1.017-.171c.412.024.997.479 1.756 1.364.893 1.06 1.552 1.856 1.976 2.388a23.91 23.91 0 011.207 1.65c.38.57.949 1.44 1.707 2.614.425.692.594 1.217.507 1.575a2.912 2.912 0 01-.362.893c-.153.238-.117.524.108.857.082.163.264.289.545.379.28.09.73-.085 1.345-.524l7.807-5.943c.324-.244.627-.457.909-.639.281-.182.534-.342.759-.48l.576-.315c.161-.087.276-.156.345-.206.246-.22.35-.641.311-1.264a7.96 7.96 0 00-.404-1.989c-.231-.703-.513-1.285-.846-1.746a1.947 1.947 0 00-.837-.64 1 1 0 00-.992.108c-.447.393-.59.869-.43 1.427.16.559.19 1.216.09 1.973-.1.756-.762 1.627-1.988 2.612-.641.518-1.142.864-1.505 1.038-.362.174-.73.108-1.103-.198-.373-.305-.896-.918-1.57-1.84a3.441 3.441 0 01-.584-.968c-.13-.335-.01-.657.359-.965.624-.436 1.117-.539 1.479-.307.361.232.681.495.96.79.28.293.608.316.985.068.357-.309.48-.73.369-1.262a5.332 5.332 0 00-.622-1.584 11.09 11.09 0 00-.783-1.207 11.533 11.533 0 00-.874-1.04 4.85 4.85 0 00-1.248-.991c-.446-.242-.857-.237-1.235.016-.4.346-.503.712-.31 1.101.194.389.382.781.564 1.178.183.397.059.78-.372 1.149-.542.446-.929.658-1.161.635-.232-.022-.537-.308-.915-.859-.855-1.031-1.331-1.778-1.428-2.24-.096-.462.367-1.06 1.391-1.792 1.174-.857 2.053-1.277 2.637-1.259.585.019 1.052.126 1.403.323.35.196.76.133 1.231-.19.352-.295.496-.642.433-1.04a2.37 2.37 0 00-.478-1.09c-.357-.485-.896-.951-1.618-1.4-.721-.448-1.373-.498-1.957-.149-.095.098-.302.356-.62.774-.32.417-1.087 1.102-2.303 2.053zM245.775 242.79c1.114-.19 2.084-.514 2.91-.973a34.626 34.626 0 012.124-1.1c.59-.275 1.09-.233 1.5.126.292.34.35.73.172 1.167-.177.437-.373.765-.59.982-1.011 1.005-1.954 1.525-2.827 1.562-.873.037-1.643-.036-2.31-.217-.667-.182-1.197-.098-1.59.251-.235.268-.315.548-.239.84.076.292.236.553.48.784.488.468 1.164.924 2.03 1.366.865.442 1.634.59 2.308.442.771-.275 1.603-.743 2.495-1.404.892-.66 1.627-1.295 2.204-1.905 1.845-2.062 2.758-3.967 2.742-5.714-.017-1.747-.563-3.123-1.639-4.126-.64-.615-1.318-1.008-2.032-1.18-.715-.171-1.5-.154-2.356.051-1.072.285-2.01.68-2.813 1.183-.803.503-1.503.893-2.098 1.168-.596.276-1.118.214-1.568-.184-.295-.308-.405-.638-.33-.991.077-.353.249-.67.518-.95.584-.569 1.223-.903 1.917-1.002a20.419 20.419 0 011.982-.19c.627-.027 1.13-.218 1.512-.573.294-.336.409-.705.345-1.106a1.829 1.829 0 00-.55-1.045c-.79-.676-1.665-1.049-2.625-1.118-.96-.069-1.612.053-1.956.368-.16.19-.268.385-.324.587a1.388 1.388 0 01-.238.496c-.166.135-.559.389-1.179.762a9.53 9.53 0 00-1.781 1.401c-1.538 1.742-2.294 3.443-2.268 5.103.025 1.66.513 2.948 1.463 3.863a4.726 4.726 0 002.148 1.17 6.5 6.5 0 002.463.106z"
         style="line-height:0%;-inkscape-font-specification:Cooper Std Black" />
   </g>
</svg>